<?xml version="1.0" encoding="UTF-8" standalone="no"?>
<!-- Created with Inkscape (http://www.inkscape.org/) -->

<svg
   width="300"
   height="200"
   viewBox="0 0 79.374998 52.916667"
   version="1.1"
   id="svg5"
   xml:space="preserve"
   inkscape:version="1.2.2 (1:1.2.2+202212051552+b0a8486541)"
   sodipodi:docname="Sony_Multiples.svg"
   inkscape:export-filename="SonyMovies_1.png"
   inkscape:export-xdpi="96"
   inkscape:export-ydpi="96"
   xmlns:inkscape="http://www.inkscape.org/namespaces/inkscape"
   xmlns:sodipodi="http://sodipodi.sourceforge.net/DTD/sodipodi-0.dtd"
   xmlns="http://www.w3.org/2000/svg"
   xmlns:svg="http://www.w3.org/2000/svg"><sodipodi:namedview
     id="namedview7"
     pagecolor="#000000"
     bordercolor="#cccccc"
     borderopacity="1"
     inkscape:showpageshadow="0"
     inkscape:pageopacity="0"
     inkscape:pagecheckerboard="true"
     inkscape:deskcolor="#d1d1d1"
     inkscape:document-units="mm"
     showgrid="false"
     inkscape:zoom="2"
     inkscape:cx="129"
     inkscape:cy="107"
     inkscape:window-width="1600"
     inkscape:window-height="831"
     inkscape:window-x="0"
     inkscape:window-y="0"
     inkscape:window-maximized="1"
     inkscape:current-layer="layer2"
     showborder="true"
     borderlayer="true" /><defs
     id="defs2"><inkscape:path-effect
       effect="powerclip"
       id="path-effect857"
       is_visible="true"
       lpeversion="1"
       inverse="true"
       flatten="false"
       hide_clip="false"
       message="Utilice la regla de relleno parimpar en el diálogo &lt;b&gt;Relleno y borde&lt;/b&gt; si el resultado no está aplanada después de convertir el recorte en trayectos." /><inkscape:path-effect
       effect="powerclip"
       id="path-effect820"
       is_visible="true"
       lpeversion="1"
       inverse="true"
       flatten="false"
       hide_clip="false"
       message="Utilice la regla de relleno parimpar en el diálogo &lt;b&gt;Relleno y borde&lt;/b&gt; si el resultado no está aplanada después de convertir el recorte en trayectos." /><inkscape:path-effect
       effect="powerclip"
       id="path-effect765"
       is_visible="true"
       lpeversion="1"
       inverse="true"
       flatten="false"
       hide_clip="false"
       message="Utilice la regla de relleno parimpar en el diálogo &lt;b&gt;Relleno y borde&lt;/b&gt; si el resultado no está aplanada después de convertir el recorte en trayectos." /><inkscape:path-effect
       effect="powerclip"
       id="path-effect757"
       is_visible="true"
       lpeversion="1"
       inverse="true"
       flatten="false"
       hide_clip="false"
       message="Utilice la regla de relleno parimpar en el diálogo &lt;b&gt;Relleno y borde&lt;/b&gt; si el resultado no está aplanada después de convertir el recorte en trayectos." /><inkscape:path-effect
       effect="powerclip"
       id="path-effect749"
       is_visible="true"
       lpeversion="1"
       inverse="true"
       flatten="false"
       hide_clip="false"
       message="Utilice la regla de relleno parimpar en el diálogo &lt;b&gt;Relleno y borde&lt;/b&gt; si el resultado no está aplanada después de convertir el recorte en trayectos." /><linearGradient
       id="linearGradient7542"
       inkscape:swatch="solid"><stop
         style="stop-color:#800080;stop-opacity:1;"
         offset="0"
         id="stop7540" /></linearGradient><linearGradient
       id="linearGradient5516"
       inkscape:swatch="gradient"><stop
         style="stop-color:#800080;stop-opacity:1;"
         offset="0.26551038"
         id="stop5512" /><stop
         style="stop-color:#800080;stop-opacity:0;"
         offset="1"
         id="stop5514" /></linearGradient><linearGradient
       id="linearGradient5508"
       inkscape:swatch="solid"><stop
         style="stop-color:#800080;stop-opacity:1;"
         offset="0"
         id="stop5506" /></linearGradient><clipPath
       clipPathUnits="userSpaceOnUse"
       id="clipPath745"><circle
         fill="#2115b5"
         cx="26.646713"
         cy="40.929684"
         r="1.1865985"
         id="circle747"
         style="display:none;fill:#d45500;stroke-width:0.0923422"
         d="m 27.833312,40.929684 a 1.1865985,1.1865985 0 0 1 -1.186599,1.186598 1.1865985,1.1865985 0 0 1 -1.186598,-1.186598 1.1865985,1.1865985 0 0 1 1.186598,-1.186599 1.1865985,1.1865985 0 0 1 1.186599,1.186599 z" /><path
         id="lpe_path-effect749"
         style="fill:#d45500;stroke-width:0.0923422"
         class="powerclip"
         d="M 18.464138,32.757445 H 34.809403 V 49.097059 H 18.464138 Z m 9.369174,8.172239 a 1.1865985,1.1865985 0 0 0 -1.186599,-1.186599 1.1865985,1.1865985 0 0 0 -1.186598,1.186599 1.1865985,1.1865985 0 0 0 1.186598,1.186598 1.1865985,1.1865985 0 0 0 1.186599,-1.186598 z" /></clipPath><clipPath
       clipPathUnits="userSpaceOnUse"
       id="clipPath753"><path
         fill="#230caa"
         d="m 44.545419,41.753385 q -0.360135,0.415539 -0.95759,0.373063 c -0.02678,-0.0019 -0.04801,-0.02307 -0.04801,-0.04987 l -0.01109,-2.331643 c 0,-0.02585 0.02032,-0.04617 0.04617,-0.04617 q 0.798761,0.0011 1.11365,0.613151 0.175447,0.342588 0.150516,0.724887 -0.02585,0.408154 -0.293648,0.716579 z"
         id="path755"
         style="display:none;fill:#d45500;stroke-width:0.0923422" /><path
         id="lpe_path-effect757"
         style="fill:#d45500;stroke-width:0.0923422"
         class="powerclip"
         d="M 36.538757,32.890097 H 51.80303 V 48.964054 H 36.538757 Z m 8.006662,8.863288 -2e-6,-3e-6 q 0.267798,-0.308425 0.293648,-0.716579 0.02493,-0.382299 -0.150516,-0.724887 -0.314889,-0.612051 -1.11365,-0.613151 c -0.02585,0 -0.04617,0.02032 -0.04617,0.04617 l 0.01109,2.331643 c 0,0.0268 0.02123,0.04797 0.04801,0.04987 q 0.597455,0.04248 0.95759,-0.373063 z" /></clipPath><clipPath
       clipPathUnits="userSpaceOnUse"
       id="clipPath761"><path
         fill="#24029e"
         d="m 52.61429,41.324916 q 0.06187,-0.163443 0.127432,-0.0037 l 0.251171,0.619615 c 0.01016,0.02492 -0.0056,0.05172 -0.02955,0.05172 l -0.502341,0.01291 c -0.04987,0.0011 -0.08311,-0.05541 -0.0628,-0.108963 z"
         id="path763"
         style="display:none;fill:#d45500;stroke-width:0.0923422" /><path
         id="lpe_path-effect765"
         style="fill:#d45500;stroke-width:0.0923422"
         class="powerclip"
         d="M 44.678445,32.897149 H 60.709603 V 48.96912 H 44.678445 Z m 7.935845,8.427767 -0.216088,0.571582 c -0.02031,0.05355 0.01293,0.110063 0.0628,0.108963 l 0.502341,-0.01291 c 0.02395,0 0.03971,-0.0268 0.02955,-0.05172 l -0.251171,-0.619615 q -0.06556,-0.159743 -0.127432,0.0037 z" /></clipPath><clipPath
       clipPathUnits="userSpaceOnUse"
       id="clipPath816"><path
         fill="#ffffff"
         d="m 51.892994,37.865608 q 0.359095,0.438894 0.426926,1.047359 c 0.0059,0.05386 -0.03392,0.09975 -0.08778,0.09975 l -4.01388,0.01196 c -0.09775,0 -0.167576,-0.09376 -0.137652,-0.187528 q 0.736145,-2.258304 2.824877,-1.587995 0.654352,0.209473 0.98751,0.616445 z"
         id="path818"
         style="display:none;fill:#ff0000;stroke-width:0.199497" /><path
         id="lpe_path-effect820"
         style="fill:#ff0000;stroke-width:0.199497"
         class="powerclip"
         d="m 41.378339,30.764917 h 17.571352 v 18.21139 H 41.378339 Z m 10.514655,7.100691 10e-7,-9e-6 q -0.333158,-0.406972 -0.98751,-0.616445 -2.088732,-0.670309 -2.824877,1.587995 c -0.02992,0.09377 0.0399,0.187528 0.137652,0.187528 l 4.01388,-0.01196 c 0.05386,0 0.09368,-0.04589 0.08778,-0.09975 q -0.06783,-0.608465 -0.426926,-1.047359 z" /></clipPath><clipPath
       clipPathUnits="userSpaceOnUse"
       id="clipPath853"><ellipse
         fill="#ffffff"
         cx="42.739788"
         cy="-30.014458"
         transform="rotate(87.900004)"
         rx="1.8116283"
         ry="1.6673087"
         id="ellipse855"
         style="display:none;fill:#0055d4;fill-opacity:1;stroke-width:0.0346924"
         d="m 44.551416,-30.014458 a 1.8116283,1.6673087 0 0 1 -1.811628,1.667309 1.8116283,1.6673087 0 0 1 -1.811628,-1.667309 1.8116283,1.6673087 0 0 1 1.811628,-1.667308 1.8116283,1.6673087 0 0 1 1.811628,1.667308 z" /><path
         id="lpe_path-effect857"
         style="fill:#0055d4;fill-opacity:1;stroke-width:0.0346924"
         class="powerclip"
         d="M 23.633822,33.645864 H 39.48862 V 49.577572 H 23.633822 Z m 20.917594,-63.660322 a 1.8116283,1.6673087 0 0 0 -1.811628,-1.667308 1.8116283,1.6673087 0 0 0 -1.811628,1.667308 1.8116283,1.6673087 0 0 0 1.811628,1.667309 1.8116283,1.6673087 0 0 0 1.811628,-1.667309 z" /></clipPath></defs><rect
     style="display:inline;opacity:0.995032;fill:none;fill-opacity:1;fill-rule:nonzero;stroke-width:0;stroke-dasharray:none"
     id="rect7715"
     width="79.375"
     height="11.90625"
     x="0"
     y="20.505209"
     rx="0.0283156"
     sodipodi:insensitive="true" /><g
     inkscape:groupmode="layer"
     id="layer2"
     inkscape:label="TODO"
     transform="matrix(0.95740732,0,0,0.95740732,2.3245625,1.3802456)"><g
       id="Bottom"
       style="display:inline"
       transform="matrix(0.97432424,0,0,0.97432424,0.35702174,-12.614706)"
       sodipodi:insensitive="true"><g
         id="TOP_BLACK"
         style="display:none;fill:#1a1a1a;fill-opacity:1"
         transform="matrix(1.0000049,0,0,1.0000049,-6.85319e-5,0.10575737)"
         sodipodi:insensitive="true"><path
           id="path4624"
           style="display:inline;fill:#1a1a1a;fill-opacity:1;stroke-width:0.0951036"
           d="m 17.62888,13.914397 c -1.426548,0.185132 -2.496333,0.884534 -3.209607,2.098053 -0.191475,0.32652 -0.334044,0.6785 -0.427879,1.055744 -0.06183,0.247894 -0.09376,0.587957 -0.0987,1.012336 -0.0011,0.0016 -0.0021,0.0031 -0.0021,0.0052 v 0.103352 35.852416 7.100307 c 0,0.224123 0.009,0.423333 0.02377,0.607196 -5.6e-4,-2.565883 0.0013,-5.131796 10e-4,-7.697684 h 0.0248 c -4.5e-4,2.558854 0.0013,5.117657 0,7.676496 0,0.127975 -0.0073,0.159621 -0.02067,0.09767 0.02073,0.219856 0.05238,0.410755 0.0956,0.569472 0.175624,0.647336 0.484523,1.21545 0.927071,1.70428 0.69996,0.771601 1.591732,1.225469 2.675276,1.361151 H 61.72158 c 1.946447,-0.304965 3.163593,-1.358625 3.649889,-3.160515 0.07545,-0.278971 0.11317,-0.616474 0.11317,-1.01337 V 18.256746 c 0,-0.525606 -0.04108,-0.943112 -0.123506,-1.253147 -0.285942,-1.081008 -0.913095,-1.918936 -1.879979,-2.513013 -0.487564,-0.299259 -1.061999,-0.49123 -1.723917,-0.576189 z m -3.714483,47.834572 c 2e-6,0.0081 -2e-6,0.01619 0,0.02429 0,0.01839 0.0015,0.03503 0.0047,0.04961 1.83e-4,8.89e-4 3.76e-4,0.0015 5.17e-4,0.0021 -0.0023,-0.024 -0.0032,-0.05123 -0.0052,-0.07596 z m 0.0057,-44.023971 c 1.67e-4,0.116958 3.52e-4,0.233923 5.17e-4,0.350881 h -5.17e-4 c 5.5e-5,-0.11696 -5.6e-5,-0.233921 0,-0.350881 z m 6.468824,17.8381 c 0.258793,0.131268 0.521175,0.256577 0.788578,0.373619 2.099246,0.918064 4.330101,1.613189 6.693099,2.086167 1.903334,0.381048 3.631435,0.670862 5.184154,0.868677 2.446693,0.312574 4.895276,0.60831 7.345769,0.88728 2.737075,0.311306 4.892999,0.573762 6.467274,0.788062 2.149969,0.292916 4.279052,0.694702 6.387176,1.205088 1.330179,0.322085 2.634217,0.727626 3.912403,1.216458 1.067059,0.408309 2.090918,0.905419 3.071116,1.491891 1.091152,0.653042 2.04885,1.463048 2.873712,2.429297 0.867975,1.016971 1.46253,2.20556 1.783345,3.566173 0.06087,0.255512 0.09819,0.494324 0.112137,0.716232 7.34e-4,0.01522 0.001,0.255112 0.001,0.719849 -6.27e-4,3.113048 -0.0071,6.226271 -0.01912,9.339953 -0.0044,1.136802 -0.412261,2.070058 -1.223176,2.799815 -0.514824,0.462839 -1.138664,0.758292 -1.872227,0.88573 -0.172454,0.0299 -0.561077,0.04414 -1.165298,0.04341 -14.170393,-0.01333 -28.3405,-0.01964 -42.510892,-0.01964 -0.844517,0 -1.56204,-0.19625 -2.152313,-0.588075 -0.815985,-0.542092 -1.338855,-1.253052 -1.568372,-2.133709 -0.0875,-0.336667 -0.131258,-0.967461 -0.131258,-1.891865 v -6.296226 h 1.641753 c 0.0053,0 0.0098,-0.0045 0.0098,-0.0098 v -4.973832 h 4.36147 c 0.0053,0 0.0098,-0.0045 0.0098,-0.0098 z" /><g
           id="Sony"
           transform="matrix(0.9999951,0,0,0.9999951,6.8540331e-5,6.870713e-5)"
           sodipodi:insensitive="true"
           style="display:inline"><path
             fill="#ffffff"
             d="m 31.280817,27.264409 q -1.1038,-0.984874 -0.964222,-2.486754 0.07655,-0.826426 0.542642,-1.43138 0.44152,-0.572907 1.090625,-0.921138 0.3963,-0.212927 0.795805,-0.34111 1.20599,-0.386686 2.553338,-0.306572 1.05039,0.06267 1.982923,0.491725 0.73919,0.340398 1.275067,0.977041 0.546915,0.649462 0.634863,1.530722 0.09792,0.978465 -0.387754,1.778542 -0.214707,0.353572 -0.539438,0.658719 -0.243548,0.22895 -0.565786,0.430482 -0.601037,0.37636 -1.260469,0.550832 -1.314946,0.348231 -2.678673,0.129607 -0.385618,-0.0616 -0.697174,-0.145274 -0.694326,-0.186222 -1.312454,-0.566143 -0.250313,-0.153819 -0.469293,-0.349299 z m 1.75433,-0.436891 q 0.315473,0.266692 0.702159,0.413035 0.870934,0.32936 1.768929,0.07299 0.419444,-0.119638 0.779425,-0.36639 0.741682,-0.507392 0.872714,-1.404319 0.03489,-0.239275 0.02777,-0.614211 -0.01567,-0.802925 -0.490657,-1.365151 -0.216131,-0.256011 -0.538369,-0.46146 -0.727796,-0.464308 -1.600154,-0.400572 -0.366747,0.0267 -0.696463,0.139221 -0.662992,0.226101 -1.087421,0.763758 -0.545134,0.691121 -0.484959,1.63576 0.03667,0.573264 0.318677,1.071399 0.168419,0.296245 0.428346,0.515937 z"
             id="path2175"
             style="fill:#ffffff;stroke-width:0.0356065" /><path
             fill="#ffffff"
             d="m 23.030447,25.500466 q -0.406626,-0.08902 -0.748448,-0.280579 -0.34111,-0.191207 -0.55012,-0.445793 -0.281291,-0.341822 -0.340041,-0.790107 -0.04166,-0.315117 0.03454,-0.599257 0.08083,-0.301942 0.282003,-0.545847 0.176252,-0.213282 0.412323,-0.374579 0.185153,-0.126759 0.491725,-0.25067 1.44669,-0.585014 3.010525,-0.391671 0.899063,0.111092 1.740087,0.488521 0.155245,0.06943 0.237852,0.05768 0.168418,-0.02386 0.188002,-0.249957 c 0.0028,-0.03276 0.03133,-0.05733 0.06409,-0.05555 q 0.360338,0.01816 0.768031,-0.0025 c 0.0203,-0.0011 0.03739,0.01531 0.03739,0.03561 v 1.983635 c 0,0.02172 -0.01745,0.03917 -0.03917,0.03917 h -0.742751 c -0.01602,0 -0.03026,-0.0096 -0.03632,-0.02457 q -0.295534,-0.741682 -1.033299,-1.043625 -0.455763,-0.186578 -0.879836,-0.257791 -0.824289,-0.138153 -1.654987,-0.04273 -0.300163,0.0349 -0.696463,0.175896 -0.32295,0.115009 -0.47855,0.367103 -0.111448,0.180881 -0.02706,0.341822 0.05839,0.111804 0.216843,0.191206 0.136729,0.06837 0.282003,0.09471 0.07442,0.01318 0.312981,0.04949 0.152395,0.0235 0.314049,0.03988 1.615464,0.164858 2.041318,0.22432 0.520922,0.07264 1.031874,0.197972 0.423361,0.103971 0.813608,0.296958 0.37814,0.186934 0.644833,0.513089 0.189426,0.231798 0.270609,0.529112 0.07762,0.283783 0.0673,0.579673 -0.01496,0.423004 -0.253518,0.778357 -0.217555,0.324374 -0.582878,0.556529 -0.330071,0.209365 -0.78797,0.359981 -0.803282,0.2642 -1.648935,0.294821 -1.550661,0.0559 -2.999844,-0.590355 -0.203312,-0.0908 -0.231441,0.124623 -0.01211,0.09151 -0.01139,0.246752 c 3.56e-4,0.01 -0.0075,0.01816 -0.01745,0.01852 l -0.947843,0.0085 c -0.01,3.56e-4 -0.01816,-0.0078 -0.01816,-0.0178 l -0.0021,-2.303025 c 0,-0.01389 0.01104,-0.02492 0.02492,-0.02492 l 0.83604,-0.0021 c 0.01246,0 0.02314,0.0089 0.02528,0.02101 q 0.146698,0.778001 0.794023,1.09383 0.248889,0.121418 0.390603,0.171623 1.059292,0.374936 2.183744,0.309064 0.416239,-0.02457 0.815743,-0.142782 0.208298,-0.0616 0.397725,-0.168062 0.126046,-0.07121 0.217199,-0.177676 0.09649,-0.112517 0.12213,-0.244617 0.04807,-0.249245 -0.157024,-0.432974 -0.150616,-0.134593 -0.371732,-0.18907 -0.214351,-0.0527 -0.881259,-0.125691 -0.797229,-0.08724 -1.593745,-0.182661 -0.606378,-0.07228 -1.337022,-0.23251 z"
             id="path2177"
             style="fill:#ffffff;stroke-width:0.0356065" /><path
             fill="#ffffff"
             d="m 46.877867,25.629717 q 0.0061,-1.80133 0.0021,-2.303381 -0.0028,-0.371732 -0.373868,-0.388467 -0.410186,-0.01852 -0.821085,-0.01032 c -0.01,3.56e-4 -0.01816,-0.0075 -0.01851,-0.01709 l -0.0057,-0.763046 c 0,-0.01246 0.01033,-0.02279 0.02279,-0.02279 l 3.4905,0.0021 c 0.01,0 0.0178,0.0078 0.01816,0.01745 l 0.01104,0.76269 c 3.56e-4,0.01175 -0.0093,0.02136 -0.02136,0.02136 l -0.791175,0.005 q -0.100767,7.12e-4 -0.157025,0.09222 -0.08474,0.138509 -0.104327,0.291617 -0.0032,0.02706 -0.0032,0.303723 0.0014,2.197274 -0.0021,4.394548 c 0,0.0096 -0.0078,0.01745 -0.0178,0.0178 l -1.170384,0.0085 c -0.01175,3.56e-4 -0.02279,-0.0039 -0.03133,-0.01139 l -4.514185,-4.007506 q -0.02314,-0.0203 -0.0235,0.01068 -0.005,1.447046 0.0021,2.853501 0.0011,0.198328 0.139933,0.288056 0.07406,0.04771 0.229662,0.04807 0.376004,0.0011 0.752008,0.0085 c 0.01033,3.56e-4 0.01852,0.0082 0.01852,0.01816 l 0.0043,0.77444 c 0,0.01 -0.0082,0.0178 -0.01816,0.0178 l -3.462727,-0.0043 c -0.01033,-3.56e-4 -0.01852,-0.0082 -0.01852,-0.01816 l -0.0053,-0.714621 c -3.56e-4,-0.02101 0.01745,-0.0381 0.03917,-0.03739 q 0.354997,0.01246 0.669045,-0.0064 0.169843,-0.01033 0.244973,-0.05982 0.115009,-0.07584 0.141001,-0.234291 0.0064,-0.03952 0.0061,-0.240343 -0.0018,-1.65392 0.0085,-3.307483 0.0014,-0.226457 -0.04522,-0.316186 -0.08724,-0.168418 -0.316541,-0.168418 -0.369239,0 -0.755569,0 c -0.01033,0 -0.01852,-0.0082 -0.01852,-0.01852 l 0.0057,-0.775864 c 3.56e-4,-0.01 0.0085,-0.0178 0.01852,-0.01816 q 1.389719,-0.0068 2.779439,-0.0064 0.07833,0 0.136017,0.0075 0.06089,0.0075 0.116433,0.05804 1.909218,1.731542 3.826625,3.454182 0.01353,0.01211 0.01353,-0.0057 z"
             id="path2179"
             style="fill:#ffffff;stroke-width:0.0356065" /><path
             fill="#ffffff"
             d="m 57.581521,23.159342 q -1.132641,1.26296 -2.277388,2.58574 c -0.01923,0.02243 -0.02991,0.05092 -0.02991,0.08047 v 1.068905 q 0,0.0794 0.01674,0.157025 0.02564,0.118569 0.117145,0.160585 0.04985,0.02314 0.180168,0.01887 0.41624,-0.01353 0.832479,-0.02101 c 0.01,-3.56e-4 0.01816,0.0075 0.01816,0.01709 l 0.0093,0.777645 c 3.56e-4,0.01638 -0.01353,0.02991 -0.03062,0.03027 l -4.066257,0.02742 c -0.01673,3.56e-4 -0.03026,-0.01317 -0.03026,-0.02991 l -3.57e-4,-0.778713 c 0,-0.0096 0.0082,-0.01745 0.01816,-0.01745 q 0.330784,-0.0032 0.661568,-0.0025 0.240699,3.56e-4 0.256366,-0.0032 0.114653,-0.02528 0.155244,-0.141001 0.01958,-0.0559 0.01994,-0.1937 0.0011,-0.546203 -0.0025,-1.092762 c 0,-0.01139 -0.0043,-0.02243 -0.01175,-0.03098 q -1.255839,-1.418561 -2.013545,-2.26101 -0.15916,-0.17732 -0.254942,-0.297314 -0.138153,-0.172691 -0.335412,-0.239987 -0.115009,-0.03917 -0.394876,-0.04095 -0.294821,-0.0021 -0.589999,-3.57e-4 c -0.01033,0 -0.01852,-0.0082 -0.01852,-0.01816 l 0.0043,-0.729932 c 0,-0.01 0.0085,-0.0178 0.01887,-0.0178 l 4.113613,-0.01531 c 0.01033,0 0.01852,0.0082 0.01852,0.01851 v 0.740971 c 0,0.01317 -0.01068,0.02386 -0.02386,0.02386 q -0.158805,0 -0.314405,-0.005 -0.12391,-0.0039 -0.22432,0.03703 -0.07121,0.0292 -0.04308,0.100766 0.05804,0.147411 0.160941,0.266336 0.578961,0.667977 1.164331,1.350197 c 0.0078,0.0089 0.02172,0.0093 0.02955,3.56e-4 q 0.649462,-0.72922 1.291446,-1.436364 0.07762,-0.08546 0.104683,-0.197616 0.02528,-0.104683 -0.115721,-0.10682 l -0.482111,-0.0078 c -0.01852,-3.56e-4 -0.03383,-0.0146 -0.03347,-0.03205 l 0.0053,-0.71925 c 3.56e-4,-0.01 0.0085,-0.0178 0.01887,-0.0178 l 3.356976,-0.01531 c 0.0053,0 0.0096,0.0043 0.0096,0.0096 l 0.0093,0.732068 c 3.56e-4,0.01674 -0.01282,0.03062 -0.02955,0.03133 q -0.411254,0.01211 -0.771948,0.01282 -0.298026,7.12e-4 -0.49671,0.222185 z"
             id="path2181"
             style="fill:#ffffff;stroke-width:0.0356065" /><path
             fill="#010101"
             d="m 33.035147,26.827518 q -0.259927,-0.219692 -0.428346,-0.515937 -0.282003,-0.498135 -0.318677,-1.071399 -0.06018,-0.944639 0.484959,-1.63576 0.424429,-0.537657 1.087421,-0.763758 0.329716,-0.112517 0.696463,-0.139221 0.872358,-0.06374 1.600154,0.400572 0.322238,0.205449 0.538369,0.46146 0.47499,0.562226 0.490657,1.365151 0.0071,0.374936 -0.02777,0.614211 -0.131032,0.896927 -0.872714,1.404319 -0.359981,0.246752 -0.779425,0.36639 -0.897995,0.256367 -1.768929,-0.07299 -0.386686,-0.146343 -0.702159,-0.413035 z"
             id="path2183"
             style="fill:#1a1a1a;stroke-width:0.0356065" /></g></g><g
         id="TOP_SILVER"
         style="display:inline;fill:#808080;fill-opacity:1"
         transform="matrix(1.0000049,0,0,1.0000049,-6.866929e-5,0.1057575)"
         sodipodi:insensitive="true"><path
           id="path622"
           style="display:inline;fill:#808080;fill-opacity:1;stroke-width:0.0951036"
           d="m 17.62888,13.914397 c -1.426548,0.185132 -2.496333,0.884534 -3.209607,2.098053 -0.191475,0.32652 -0.334044,0.6785 -0.427879,1.055744 -0.06183,0.247894 -0.09376,0.587957 -0.0987,1.012336 -0.0011,0.0016 -0.0021,0.0031 -0.0021,0.0052 v 0.103352 35.852416 7.100307 c 0,0.224123 0.009,0.423333 0.02377,0.607196 -5.6e-4,-2.565883 0.0013,-5.131796 10e-4,-7.697684 h 0.0248 c -4.5e-4,2.558854 0.0013,5.117657 0,7.676496 0,0.127975 -0.0073,0.159621 -0.02067,0.09767 0.02073,0.219856 0.05238,0.410755 0.0956,0.569472 0.175624,0.647336 0.484523,1.21545 0.927071,1.70428 0.69996,0.771601 1.591732,1.225469 2.675276,1.361151 H 61.72158 c 1.946447,-0.304965 3.163593,-1.358625 3.649889,-3.160515 0.07545,-0.278971 0.11317,-0.616474 0.11317,-1.01337 V 18.256746 c 0,-0.525606 -0.04108,-0.943112 -0.123506,-1.253147 -0.285942,-1.081008 -0.913095,-1.918936 -1.879979,-2.513013 -0.487564,-0.299259 -1.061999,-0.49123 -1.723917,-0.576189 z m -3.714483,47.834572 c 2e-6,0.0081 -2e-6,0.01619 0,0.02429 0,0.01839 0.0015,0.03503 0.0047,0.04961 1.83e-4,8.89e-4 3.76e-4,0.0015 5.17e-4,0.0021 -0.0023,-0.024 -0.0032,-0.05123 -0.0052,-0.07596 z m 0.0057,-44.023971 c 1.67e-4,0.116958 3.52e-4,0.233923 5.17e-4,0.350881 h -5.17e-4 c 5.5e-5,-0.11696 -5.6e-5,-0.233921 0,-0.350881 z m 6.468824,17.8381 c 0.258793,0.131268 0.521175,0.256577 0.788578,0.373619 2.099246,0.918064 4.330101,1.613189 6.693099,2.086167 1.903334,0.381048 3.631435,0.670862 5.184154,0.868677 2.446693,0.312574 4.895276,0.60831 7.345769,0.88728 2.737075,0.311306 4.892999,0.573762 6.467274,0.788062 2.149969,0.292916 4.279052,0.694702 6.387176,1.205088 1.330179,0.322085 2.634217,0.727626 3.912403,1.216458 1.067059,0.408309 2.090918,0.905419 3.071116,1.491891 1.091152,0.653042 2.04885,1.463048 2.873712,2.429297 0.867975,1.016971 1.46253,2.20556 1.783345,3.566173 0.06087,0.255512 0.09819,0.494324 0.112137,0.716232 7.34e-4,0.01522 0.001,0.255112 0.001,0.719849 -6.27e-4,3.113048 -0.0071,6.226271 -0.01912,9.339953 -0.0044,1.136802 -0.412261,2.070058 -1.223176,2.799815 -0.514824,0.462839 -1.138664,0.758292 -1.872227,0.88573 -0.172454,0.0299 -0.561077,0.04414 -1.165298,0.04341 -14.170393,-0.01333 -28.3405,-0.01964 -42.510892,-0.01964 -0.844517,0 -1.56204,-0.19625 -2.152313,-0.588075 -0.815985,-0.542092 -1.338855,-1.253052 -1.568372,-2.133709 -0.0875,-0.336667 -0.131258,-0.967461 -0.131258,-1.891865 v -6.296226 h 1.641753 c 0.0053,0 0.0098,-0.0045 0.0098,-0.0098 v -4.973832 h 4.36147 c 0.0053,0 0.0098,-0.0045 0.0098,-0.0098 z"
           sodipodi:insensitive="true" /><g
           id="g1240"
           style="fill:#1a1a1a"
           sodipodi:insensitive="true"><path
             fill="#ffffff"
             d="m 31.280732,27.264344 q -1.103794,-0.984869 -0.964217,-2.486742 0.07655,-0.826422 0.542639,-1.431373 0.441518,-0.572904 1.09062,-0.921133 0.396298,-0.212926 0.795801,-0.341109 1.205984,-0.386684 2.553326,-0.30657 1.050384,0.06267 1.982913,0.491723 0.739186,0.340396 1.275061,0.977036 0.546912,0.649459 0.63486,1.530714 0.09792,0.978461 -0.387753,1.778534 -0.214706,0.35357 -0.539435,0.658715 -0.243547,0.228949 -0.565783,0.43048 -0.601034,0.376358 -1.260463,0.55083 -1.31494,0.348229 -2.67866,0.129606 -0.385616,-0.0616 -0.69717,-0.145273 -0.694323,-0.186221 -1.312448,-0.566141 -0.250312,-0.153818 -0.469291,-0.349297 z m 1.754322,-0.436889 q 0.315471,0.266691 0.702155,0.413033 0.87093,0.329359 1.768921,0.07299 0.419442,-0.119638 0.779421,-0.366388 0.741678,-0.50739 0.872709,-1.404312 0.03489,-0.239274 0.02777,-0.614208 -0.01567,-0.802922 -0.490654,-1.365145 -0.21613,-0.256009 -0.538367,-0.461457 -0.727792,-0.464306 -1.600146,-0.400571 -0.366745,0.0267 -0.696459,0.139221 -0.662989,0.2261 -1.087416,0.763754 -0.545131,0.691118 -0.484957,1.635752 0.03667,0.573261 0.318676,1.071394 0.168418,0.296243 0.428344,0.515934 z"
             id="path624"
             style="fill:#1a1a1a;fill-opacity:1;stroke-width:0.0356063"
             sodipodi:insensitive="true" /><path
             fill="#ffffff"
             d="m 23.030403,25.50041 q -0.406624,-0.08902 -0.748445,-0.280578 -0.341108,-0.191206 -0.550117,-0.445791 -0.28129,-0.34182 -0.340039,-0.790103 -0.04166,-0.315115 0.03454,-0.599254 0.08083,-0.30194 0.282001,-0.545844 0.176251,-0.213281 0.412321,-0.374577 0.185152,-0.126759 0.491723,-0.250669 1.446683,-0.585011 3.01051,-0.391669 0.899059,0.111091 1.740078,0.488518 0.155245,0.06943 0.237851,0.05768 0.168417,-0.02386 0.188001,-0.249956 c 0.0028,-0.03276 0.03133,-0.05733 0.06409,-0.05555 q 0.360336,0.01816 0.768027,-0.0025 c 0.0203,-0.0011 0.03739,0.01531 0.03739,0.03561 v 1.983626 c 0,0.02172 -0.01745,0.03917 -0.03917,0.03917 h -0.742747 c -0.01602,0 -0.03026,-0.0096 -0.03632,-0.02457 q -0.295532,-0.741679 -1.033294,-1.04362 -0.455761,-0.186577 -0.879832,-0.25779 -0.824284,-0.138152 -1.654978,-0.04273 -0.300162,0.0349 -0.69646,0.175895 -0.322948,0.115009 -0.478548,0.367102 -0.111447,0.18088 -0.02706,0.34182 0.05839,0.111803 0.216842,0.191205 0.136729,0.06837 0.282002,0.09471 0.07442,0.01318 0.31298,0.04949 0.152394,0.0235 0.314047,0.03988 1.615456,0.164857 2.041308,0.224319 0.520919,0.07264 1.031869,0.197971 0.423359,0.10397 0.813604,0.296957 0.378138,0.186933 0.64483,0.513086 0.189425,0.231797 0.270607,0.529109 0.07762,0.283782 0.0673,0.579671 -0.01496,0.423002 -0.253517,0.778353 -0.217554,0.324372 -0.582875,0.556526 -0.330069,0.209364 -0.787966,0.359979 -0.803278,0.264199 -1.648927,0.29482 -1.550653,0.0559 -2.999829,-0.590352 -0.203311,-0.0908 -0.23144,0.124622 -0.01211,0.09151 -0.01139,0.246751 c 3.56e-4,0.01 -0.0075,0.01816 -0.01745,0.01852 l -0.947838,0.0085 c -0.01,3.56e-4 -0.01816,-0.0078 -0.01816,-0.0178 l -0.0021,-2.303014 c 0,-0.01389 0.01104,-0.02492 0.02492,-0.02492 l 0.836036,-0.0021 c 0.01246,0 0.02314,0.0089 0.02528,0.02101 q 0.146697,0.777997 0.794019,1.093825 0.248887,0.121417 0.390601,0.171622 1.059287,0.374934 2.183733,0.309062 0.416237,-0.02457 0.815739,-0.142781 0.208297,-0.0616 0.397723,-0.168061 0.126045,-0.07121 0.217198,-0.177675 0.09649,-0.112517 0.122129,-0.244616 0.04807,-0.249244 -0.157023,-0.432972 -0.150615,-0.134592 -0.37173,-0.189069 -0.21435,-0.0527 -0.881255,-0.12569 -0.797225,-0.08724 -1.593737,-0.18266 -0.606375,-0.07228 -1.337015,-0.232509 z"
             id="path626"
             style="fill:#1a1a1a;fill-opacity:1;stroke-width:0.0356063"
             sodipodi:insensitive="true" /><path
             fill="#ffffff"
             d="m 46.877706,25.62966 q 0.0061,-1.801321 0.0021,-2.30337 -0.0028,-0.37173 -0.373866,-0.388465 -0.410184,-0.01852 -0.821081,-0.01032 c -0.01,3.56e-4 -0.01816,-0.0075 -0.01851,-0.01709 l -0.0057,-0.763042 c 0,-0.01246 0.01033,-0.02279 0.02279,-0.02279 l 3.490483,0.0021 c 0.01,0 0.0178,0.0078 0.01816,0.01745 l 0.01104,0.762686 c 3.56e-4,0.01175 -0.0093,0.02136 -0.02136,0.02136 l -0.791172,0.005 q -0.100766,7.12e-4 -0.157024,0.09222 -0.08474,0.138508 -0.104326,0.291615 -0.0032,0.02706 -0.0032,0.303722 0.0014,2.197263 -0.0021,4.394526 c 0,0.0096 -0.0078,0.01745 -0.0178,0.0178 l -1.170378,0.0085 c -0.01175,3.56e-4 -0.02279,-0.0039 -0.03133,-0.01139 l -4.514163,-4.007486 q -0.02314,-0.0203 -0.0235,0.01068 -0.005,1.447039 0.0021,2.853487 0.0011,0.198327 0.139932,0.288055 0.07406,0.04771 0.229661,0.04807 0.376002,0.0011 0.752004,0.0085 c 0.01033,3.56e-4 0.01852,0.0082 0.01852,0.01816 l 0.0043,0.774436 c 0,0.01 -0.0082,0.0178 -0.01816,0.0178 l -3.46271,-0.0043 c -0.01033,-3.56e-4 -0.01852,-0.0082 -0.01852,-0.01816 l -0.0053,-0.714617 c -3.56e-4,-0.02101 0.01745,-0.0381 0.03917,-0.03739 q 0.354996,0.01246 0.669042,-0.0064 0.169842,-0.01033 0.244972,-0.05982 0.115008,-0.07584 0.141,-0.234289 0.0064,-0.03952 0.0061,-0.240342 -0.0018,-1.653912 0.0085,-3.307467 0.0014,-0.226456 -0.04522,-0.316184 -0.08724,-0.168418 -0.316539,-0.168418 -0.369237,0 -0.755565,0 c -0.01033,0 -0.01852,-0.0082 -0.01852,-0.01852 l 0.0057,-0.77586 c 3.56e-4,-0.01 0.0085,-0.0178 0.01852,-0.01816 q 1.389712,-0.0068 2.779425,-0.0064 0.07833,0 0.136016,0.0075 0.06089,0.0075 0.116433,0.05804 1.909208,1.731534 3.826606,3.454165 0.01353,0.01211 0.01353,-0.0057 z"
             id="path628"
             style="fill:#1a1a1a;fill-opacity:1;stroke-width:0.0356063"
             sodipodi:insensitive="true" /><path
             fill="#ffffff"
             d="m 57.581307,23.159297 q -1.132635,1.262954 -2.277376,2.585728 c -0.01923,0.02243 -0.02991,0.05092 -0.02991,0.08047 v 1.0689 q 0,0.0794 0.01674,0.157024 0.02564,0.118569 0.117144,0.160584 0.04985,0.02314 0.180167,0.01887 0.416238,-0.01353 0.832475,-0.02101 c 0.01,-3.56e-4 0.01816,0.0075 0.01816,0.01709 l 0.0093,0.777641 c 3.56e-4,0.01638 -0.01353,0.02991 -0.03062,0.03027 l -4.066237,0.02742 c -0.01673,3.56e-4 -0.03026,-0.01317 -0.03026,-0.02991 l -3.57e-4,-0.778709 c 0,-0.0096 0.0082,-0.01745 0.01816,-0.01745 q 0.330782,-0.0032 0.661565,-0.0025 0.240698,3.56e-4 0.256365,-0.0032 0.114652,-0.02528 0.155243,-0.141 0.01958,-0.0559 0.01994,-0.193699 0.0011,-0.5462 -0.0025,-1.092757 c 0,-0.01139 -0.0043,-0.02243 -0.01175,-0.03098 q -1.255833,-1.418554 -2.013535,-2.260998 -0.15916,-0.17732 -0.254941,-0.297313 -0.138152,-0.17269 -0.33541,-0.239986 -0.115009,-0.03917 -0.394875,-0.04095 -0.294819,-0.0021 -0.589996,-3.57e-4 c -0.01033,0 -0.01852,-0.0082 -0.01852,-0.01816 l 0.0043,-0.729928 c 0,-0.01 0.0085,-0.0178 0.01887,-0.0178 l 4.113593,-0.01531 c 0.01033,0 0.01852,0.0082 0.01852,0.01851 v 0.740967 c 0,0.01317 -0.01068,0.02386 -0.02386,0.02386 q -0.158804,0 -0.314403,-0.005 -0.12391,-0.0039 -0.224319,0.03703 -0.07121,0.0292 -0.04308,0.100766 0.05804,0.14741 0.16094,0.266334 0.578958,0.667974 1.164326,1.350191 c 0.0078,0.0089 0.02172,0.0093 0.02955,3.56e-4 q 0.649459,-0.729217 1.29144,-1.436357 0.07762,-0.08546 0.104683,-0.197615 0.02528,-0.104683 -0.115721,-0.10682 l -0.482108,-0.0078 c -0.01852,-3.56e-4 -0.03383,-0.0146 -0.03347,-0.03205 l 0.0053,-0.719246 c 3.56e-4,-0.01 0.0085,-0.0178 0.01887,-0.0178 l 3.356959,-0.01531 c 0.0053,0 0.0096,0.0043 0.0096,0.0096 l 0.0093,0.732065 c 3.56e-4,0.01674 -0.01282,0.03062 -0.02955,0.03133 q -0.411252,0.01211 -0.771944,0.01282 -0.298025,7.12e-4 -0.496708,0.222184 z"
             id="path630"
             style="fill:#1a1a1a;fill-opacity:1;stroke-width:0.0356063"
             sodipodi:insensitive="true" /></g></g><path
         id="Novelas_panel"
         style="display:none;fill:#b12aa0;fill-opacity:1;fill-rule:nonzero;stroke-width:0.212625"
         d="m 13.943246,27.214361 c -0.02102,-0.0021 -0.03811,0.02365 -0.03811,0.05586 -0.01541,11.421994 -0.01954,22.844404 -0.01253,34.266404 0.0014,1.85059 0.768186,3.101861 2.300474,3.754586 0.453804,0.192183 1.035173,0.297054 1.743891,0.314318 0.498624,0.01284 1.093749,0.01932 1.78566,0.01932 13.287764,0 26.576487,0.0058 39.86565,0.01723 0.595267,0 1.189702,-0.01022 1.783572,-0.03028 0.745133,-0.02726 1.329256,-0.128336 1.752244,-0.303353 0.924416,-0.384464 1.588518,-1.039456 1.991899,-1.96475 0.200294,-0.457626 0.307789,-1.105033 0.323194,-1.942819 0.05883,-3.224899 0.05883,-6.450037 0,-9.674938 C 65.42378,50.901064 65.323853,50.210244 65.13897,49.653634 64.637543,48.141607 63.791466,46.841825 62.60093,45.75442 61.385187,44.6412 60.025341,43.758422 58.521062,43.10569 56.025144,42.019733 53.44098,41.231757 50.768581,40.742562 48.631217,40.350938 46.248818,40.001662 43.62124,39.694661 42.50354,39.564119 39.159472,39.149605 33.589171,38.450965 31.531647,38.192737 29.487914,37.847921 27.458404,37.416118 25.69501,37.040267 23.967246,36.537472 22.27529,35.907705 20.7416,35.336747 19.273735,34.541064 17.871705,33.521081 c -2.138761,-1.555062 -3.432904,-3.644916 -3.882506,-6.270175 -0.0041,-0.01716 -0.01456,-0.03244 -0.02506,-0.03446 z"
         sodipodi:insensitive="true" /><path
         id="Cine_panel"
         style="display:none;fill:#d40000;fill-opacity:1;fill-rule:nonzero;stroke-width:0.212625"
         d="m 13.943246,27.214361 c -0.02102,-0.0021 -0.03811,0.02365 -0.03811,0.05586 -0.01541,11.421994 -0.01954,22.844404 -0.01253,34.266404 0.0014,1.85059 0.768186,3.101861 2.300474,3.754586 0.453804,0.192183 1.035173,0.297054 1.743891,0.314318 0.498624,0.01284 1.093749,0.01932 1.78566,0.01932 13.287764,0 26.576487,0.0058 39.86565,0.01723 0.595267,0 1.189702,-0.01022 1.783572,-0.03028 0.745133,-0.02726 1.329256,-0.128336 1.752244,-0.303353 0.924416,-0.384464 1.588518,-1.039456 1.991899,-1.96475 0.200294,-0.457626 0.307789,-1.105033 0.323194,-1.942819 0.05883,-3.224899 0.05883,-6.450037 0,-9.674938 C 65.42378,50.901064 65.323853,50.210244 65.13897,49.653634 64.637543,48.141607 63.791466,46.841825 62.60093,45.75442 61.385187,44.6412 60.025341,43.758422 58.521062,43.10569 56.025144,42.019733 53.44098,41.231757 50.768581,40.742562 48.631217,40.350938 46.248818,40.001662 43.62124,39.694661 42.50354,39.564119 39.159472,39.149605 33.589171,38.450965 31.531647,38.192737 29.487914,37.847921 27.458404,37.416118 25.69501,37.040267 23.967246,36.537472 22.27529,35.907705 20.7416,35.336747 19.273735,34.541064 17.871705,33.521081 c -2.138761,-1.555062 -3.432904,-3.644916 -3.882506,-6.270175 -0.0041,-0.01716 -0.01456,-0.03244 -0.02506,-0.03446 z"
         sodipodi:insensitive="true" /><path
         id="Movies_panel"
         style="display:inline;fill:#0055d4;fill-opacity:1;fill-rule:nonzero;stroke-width:0.212625"
         d="m 13.943246,27.214361 c -0.02102,-0.0021 -0.03811,0.02365 -0.03811,0.05586 -0.01541,11.421994 -0.01954,22.844404 -0.01253,34.266404 0.0014,1.85059 0.768186,3.101861 2.300474,3.754586 0.453804,0.192183 1.035173,0.297054 1.743891,0.314318 0.498624,0.01284 1.093749,0.01932 1.78566,0.01932 13.287764,0 26.576487,0.0058 39.86565,0.01723 0.595267,0 1.189702,-0.01022 1.783572,-0.03028 0.745133,-0.02726 1.329256,-0.128336 1.752244,-0.303353 0.924416,-0.384464 1.588518,-1.039456 1.991899,-1.96475 0.200294,-0.457626 0.307789,-1.105033 0.323194,-1.942819 0.05883,-3.224899 0.05883,-6.450037 0,-9.674938 C 65.42378,50.901064 65.323853,50.210244 65.13897,49.653634 64.637543,48.141607 63.791466,46.841825 62.60093,45.75442 61.385187,44.6412 60.025341,43.758422 58.521062,43.10569 56.025144,42.019733 53.44098,41.231757 50.768581,40.742562 48.631217,40.350938 46.248818,40.001662 43.62124,39.694661 42.50354,39.564119 39.159472,39.149605 33.589171,38.450965 31.531647,38.192737 29.487914,37.847921 27.458404,37.416118 25.69501,37.040267 23.967246,36.537472 22.27529,35.907705 20.7416,35.336747 19.273735,34.541064 17.871705,33.521081 c -2.138761,-1.555062 -3.432904,-3.644916 -3.882506,-6.270175 -0.0041,-0.01716 -0.01456,-0.03244 -0.02506,-0.03446 z"
         sodipodi:insensitive="true" /><path
         id="Competencias_panel"
         style="display:none;fill:#44aa00;fill-opacity:1;fill-rule:nonzero;stroke-width:0.212625"
         d="m 13.943246,27.214361 c -0.02102,-0.0021 -0.03811,0.02365 -0.03811,0.05586 -0.01541,11.421994 -0.01954,22.844404 -0.01253,34.266404 0.0014,1.85059 0.768186,3.101861 2.300474,3.754586 0.453804,0.192183 1.035173,0.297054 1.743891,0.314318 0.498624,0.01284 1.093749,0.01932 1.78566,0.01932 13.287764,0 26.576487,0.0058 39.86565,0.01723 0.595267,0 1.189702,-0.01022 1.783572,-0.03028 0.745133,-0.02726 1.329256,-0.128336 1.752244,-0.303353 0.924416,-0.384464 1.588518,-1.039456 1.991899,-1.96475 0.200294,-0.457626 0.307789,-1.105033 0.323194,-1.942819 0.05883,-3.224899 0.05883,-6.450037 0,-9.674938 C 65.42378,50.901064 65.323853,50.210244 65.13897,49.653634 64.637543,48.141607 63.791466,46.841825 62.60093,45.75442 61.385187,44.6412 60.025341,43.758422 58.521062,43.10569 56.025144,42.019733 53.44098,41.231757 50.768581,40.742562 48.631217,40.350938 46.248818,40.001662 43.62124,39.694661 42.50354,39.564119 39.159472,39.149605 33.589171,38.450965 31.531647,38.192737 29.487914,37.847921 27.458404,37.416118 25.69501,37.040267 23.967246,36.537472 22.27529,35.907705 20.7416,35.336747 19.273735,34.541064 17.871705,33.521081 c -2.138761,-1.555062 -3.432904,-3.644916 -3.882506,-6.270175 -0.0041,-0.01716 -0.01456,-0.03244 -0.02506,-0.03446 z"
         sodipodi:insensitive="true" /><path
         id="Comedias_Panel"
         style="display:none;fill:#ff6600;fill-opacity:1;fill-rule:nonzero;stroke-width:0.212625"
         d="m 13.943246,27.214361 c -0.02102,-0.0021 -0.03811,0.02365 -0.03811,0.05586 -0.01541,11.421994 -0.01954,22.844404 -0.01253,34.266404 0.0014,1.85059 0.768186,3.101861 2.300474,3.754586 0.453804,0.192183 1.035173,0.297054 1.743891,0.314318 0.498624,0.01284 1.093749,0.01932 1.78566,0.01932 13.287764,0 26.576487,0.0058 39.86565,0.01723 0.595267,0 1.189702,-0.01022 1.783572,-0.03028 0.745133,-0.02726 1.329256,-0.128336 1.752244,-0.303353 0.924416,-0.384464 1.588518,-1.039456 1.991899,-1.96475 0.200294,-0.457626 0.307789,-1.105033 0.323194,-1.942819 0.05883,-3.224899 0.05883,-6.450037 0,-9.674938 C 65.42378,50.901064 65.323853,50.210244 65.13897,49.653634 64.637543,48.141607 63.791466,46.841825 62.60093,45.75442 61.385187,44.6412 60.025341,43.758422 58.521062,43.10569 56.025144,42.019733 53.44098,41.231757 50.768581,40.742562 48.631217,40.350938 46.248818,40.001662 43.62124,39.694661 42.50354,39.564119 39.159472,39.149605 33.589171,38.450965 31.531647,38.192737 29.487914,37.847921 27.458404,37.416118 25.69501,37.040267 23.967246,36.537472 22.27529,35.907705 20.7416,35.336747 19.273735,34.541064 17.871705,33.521081 c -2.138761,-1.555062 -3.432904,-3.644916 -3.882506,-6.270175 -0.0041,-0.01716 -0.01456,-0.03244 -0.02506,-0.03446 z"
         sodipodi:insensitive="true" /><path
         id="Channel_panel"
         style="display:none;fill:#7f2aff;fill-opacity:1;fill-rule:nonzero;stroke-width:0.212625"
         d="m 13.943246,27.214361 c -0.02102,-0.0021 -0.03811,0.02365 -0.03811,0.05586 -0.01541,11.421994 -0.01954,22.844404 -0.01253,34.266404 0.0014,1.85059 0.768186,3.101861 2.300474,3.754586 0.453804,0.192183 1.035173,0.297054 1.743891,0.314318 0.498624,0.01284 1.093749,0.01932 1.78566,0.01932 13.287764,0 26.576487,0.0058 39.86565,0.01723 0.595267,0 1.189702,-0.01022 1.783572,-0.03028 0.745133,-0.02726 1.329256,-0.128336 1.752244,-0.303353 0.924416,-0.384464 1.588518,-1.039456 1.991899,-1.96475 0.200294,-0.457626 0.307789,-1.105033 0.323194,-1.942819 0.05883,-3.224899 0.05883,-6.450037 0,-9.674938 C 65.42378,50.901064 65.323853,50.210244 65.13897,49.653634 64.637543,48.141607 63.791466,46.841825 62.60093,45.75442 61.385187,44.6412 60.025341,43.758422 58.521062,43.10569 56.025144,42.019733 53.44098,41.231757 50.768581,40.742562 48.631217,40.350938 46.248818,40.001662 43.62124,39.694661 42.50354,39.564119 39.159472,39.149605 33.589171,38.450965 31.531647,38.192737 29.487914,37.847921 27.458404,37.416118 25.69501,37.040267 23.967246,36.537472 22.27529,35.907705 20.7416,35.336747 19.273735,34.541064 17.871705,33.521081 c -2.138761,-1.555062 -3.432904,-3.644916 -3.882506,-6.270175 -0.0041,-0.01716 -0.01456,-0.03244 -0.02506,-0.03446 z" /></g><g
       inkscape:groupmode="layer"
       id="layer1"
       inkscape:label="TEXTOS"><g
         id="Novelas"
         transform="matrix(0.31700047,0,0,0.31700047,29.440822,6.6336278)"
         style="display:none;fill:#ffffff"><path
           fill="#f4f8fd"
           d="m 2.6724974,94.887307 q 2.5823333,1.053042 4.2836041,2.981855 2.9077708,3.299358 2.6908125,7.429498 -0.1402292,2.67758 -1.524,5.01121 -2.159,3.64596 -6.5246249,4.9239 -3.3866667,0.98954 -6.8315416,-0.23813 -5.5641875,-1.97908 -7.1199375,-7.6835 -0.629708,-2.59292 -0.05556,-4.69635 1.738312,-6.352649 7.9216245,-8.08567 3.48720825,-0.978958 7.1596249,0.357187 z M -10.215357,108.30433 q 1.3467295,3.87614 4.8339378,5.60652 3.1776458,1.57427 6.2521041,0.59531 5.8472916,-1.86267 6.8183124,-8.18621 0.333375,-2.11137 -0.254,-4.16718 -1.0689166,-3.751796 -4.1036874,-5.701775 -1.9685,-1.264708 -4.12220832,-1.447271 -2.26483328,-0.1905 -4.44764578,0.838729 -2.4817916,1.172104 -3.9131874,3.415771 -2.6881664,4.220106 -1.0636254,9.046106 z m 18.131896,-0.0714 q -0.044979,0.28046 -0.010583,0.61913 0.034396,0.30956 0.206375,0.0476 0.2619375,-0.39952 0.4048125,-1.03187 c 0.015875,-0.0714 -0.034396,-0.14023 -0.1058333,-0.15082 q -0.4815417,-0.0688 -0.4841875,0.2249 -0.00265,0.254 -0.010583,0.29104 z"
           id="path1939"
           style="fill:#ffffff;stroke-width:0.264583" /><path
           id="path1947"
           style="fill:#ffffff;stroke-width:0.264583"
           d="m 69.086739,94.748222 c -0.28688,1.93e-4 -0.481562,0.114191 -0.583427,0.342615 -2.01965,4.589632 -4.890075,11.374053 -8.611877,20.352243 -0.0291,0.0688 0.0025,0.14777 0.07131,0.17157 0.421569,0.15169 0.718558,0.0232 0.891419,-0.38602 2.467677,-5.83671 4.952099,-11.66842 7.453291,-17.494544 0.05998,-0.141136 0.114945,-0.138135 0.164332,0.0083 l 0.875915,2.547644 6.145878,15.11588 c 0.05821,0.14558 0.198397,0.24081 0.3545,0.24081 h 1.929082 c 0.06879,0 0.113793,-0.0688 0.08733,-0.13229 -2.688164,-6.55813 -5.334003,-13.10166 -7.9375,-19.629811 -0.213431,-0.534459 -0.45053,-0.910925 -0.711585,-1.129647 -0.04476,-0.0046 -0.08769,-0.0067 -0.128674,-0.0067 z m 2.455664,8.191748 c 0.153679,0.36783 0.323812,0.78124 0.510563,1.23972 -0.186751,-0.45848 -0.356884,-0.87189 -0.510563,-1.23972 z" /><path
           id="path1949"
           style="fill:#ffffff;stroke-width:0.264583"
           d="m -15.491561,94.800415 c -0.106274,-4.33e-4 -0.211005,0.04358 -0.314193,0.131775 -0.05821,0.05292 -0.09303,0.134833 -0.09043,0.224792 0.05291,4.684888 0.07004,9.370898 0.05064,14.057538 0,0.009 -0.01877,0.45933 -0.05581,1.35186 -0.02117,0.48154 -0.0032,0.96333 0.05323,1.44487 0.07938,0.68439 -0.07496,0.74263 -0.463021,0.17467 -3.547177,-5.17525 -7.196898,-10.35884 -10.948686,-15.549958 -0.01058,-0.01588 -0.186152,-0.279122 -0.526583,-0.79065 -0.195791,-0.292805 -0.414638,-0.568261 -0.65629,-0.825789 -0.06085,-0.0635 -0.140189,-0.100753 -0.222209,-0.103353 l -1.999878,-0.04496 c -0.09525,-0.0018 -0.115658,0.03823 -0.06098,0.119372 l 1.373043,2.029334 c 0.05027,0.07408 0.077,0.156208 0.077,0.238228 0.02996,5.976056 0.04196,11.951246 0.03669,17.925526 0,0.39688 0.201414,0.54578 0.603581,0.447 0.129647,-0.0317 0.219124,-0.14579 0.216524,-0.27544 l -0.04496,-16.68942 c -0.0018,-0.268112 0.07443,-0.292316 0.227893,-0.07183 3.891135,5.60387 7.816616,11.183 11.776543,16.73748 0.312207,0.43921 0.736568,0.5353 1.27279,0.28836 0.07144,-0.0318 0.116272,-0.10559 0.116272,-0.18759 V 95.159566 c 0,-0.0926 -0.03732,-0.174522 -0.09818,-0.224792 -0.109361,-0.08906 -0.216704,-0.133926 -0.322978,-0.134359 z m -13.725777,0.838709 c -6.21e-4,8.68e-4 -0.0016,0.0016 -0.0021,0.0026 5.16e-4,-9.98e-4 0.0014,-0.0017 0.0021,-0.0026 z m -0.0026,0.03101 c 0.0012,0.0048 0.003,0.01047 0.0052,0.01602 -0.0023,-0.0058 -0.004,-0.01112 -0.0052,-0.01602 z m 0.0078,0.0217 c 0.0056,0.01312 0.01315,0.02778 0.02377,0.04496 -0.01065,-0.01723 -0.01813,-0.03184 -0.02377,-0.04496 z m 0.285253,0.08733 c 0.02159,0.02234 0.04275,0.04688 0.06356,0.0739 -0.02073,-0.0269 -0.04207,-0.05161 -0.06356,-0.0739 z m 0.515731,1.161686 c 0.13151,0.196392 0.265119,0.3914 0.399976,0.585494 -0.134879,-0.194093 -0.268446,-0.389104 -0.399976,-0.585494 z m 11.123352,15.25023 c 0.0904,0.11951 0.179972,0.23028 0.268718,0.3328 -0.08877,-0.1025 -0.178318,-0.21329 -0.268718,-0.3328 z" /><path
           id="path1951"
           style="fill:#ffffff;stroke-width:0.264583"
           d="m 27.022123,94.834521 c -0.197473,0.01103 -0.349436,0.140561 -0.455269,0.388607 -2.4959,5.847292 -4.942481,11.621062 -7.339604,17.321942 -0.11818,0.28065 -0.234163,0.27933 -0.348816,-0.005 L 11.901082,95.149231 c -0.03175,-0.07673 -0.100398,-0.129576 -0.182417,-0.134876 L 9.8164551,94.866044 h -0.066146 c -0.088194,0.199319 -0.049533,0.494668 0.116272,0.886251 1.0565679,2.510011 3.6504109,8.945475 7.7814369,19.306315 0.100542,0.254 0.219501,0.43337 0.357085,0.53743 0.250472,0.19231 0.491367,0.19473 0.722436,0.008 0.139347,-0.11113 0.281175,-0.33787 0.425814,-0.68007 2.80458,-6.58811 5.584351,-13.18558 8.339543,-19.793103 0.0291,-0.07144 4e-6,-0.153702 -0.06615,-0.188102 -0.151474,-0.07871 -0.286143,-0.114618 -0.404627,-0.108004 z m -16.144751,0.973584 c 0.295231,0.694311 0.588512,1.389346 0.88005,2.085145 0.291537,0.695798 0.581353,1.392508 0.869197,2.089794 0.287845,0.697286 0.573678,1.395156 0.857829,2.093926 0.284151,0.69878 0.566519,1.39832 0.846977,2.09858 0.280458,0.70027 0.558843,1.40148 0.835608,2.10323 0.276765,0.70176 0.551684,1.40413 0.824756,2.10737 0.273072,0.70324 0.544525,1.40729 0.813904,2.11201 0.269378,0.70473 0.536849,1.40994 0.802535,2.11615 -0.265686,-0.70621 -0.533157,-1.41142 -0.802535,-2.11615 -0.269379,-0.70472 -0.540832,-1.40877 -0.813904,-2.11201 -0.273072,-0.70324 -0.547991,-1.40561 -0.824756,-2.10737 -0.276765,-0.70175 -0.55515,-1.40296 -0.835608,-2.10323 -0.280458,-0.70026 -0.562826,-1.3998 -0.846977,-2.09858 -0.284151,-0.69877 -0.569984,-1.39664 -0.857829,-2.093926 -0.287844,-0.697286 -0.57766,-1.393996 -0.869197,-2.089794 -0.291538,-0.695799 -0.584819,-1.390834 -0.88005,-2.085145 z m 0.460437,0.325562 c 1.013354,2.523239 2.028411,5.045583 3.045292,7.567493 1.016881,2.52192 2.035219,5.04329 3.055628,7.56388 -1.020409,-2.52059 -2.038747,-5.04196 -3.055628,-7.56388 -1.016881,-2.52191 -2.031938,-5.044254 -3.045292,-7.567493 z m 6.579444,16.232603 c 0.04322,0.09 0.08277,0.16936 0.119372,0.23771 0.0086,0.0172 0.01939,0.0332 0.03204,0.0486 0.01265,0.0154 0.0272,0.0302 0.04341,0.0434 0.01621,0.0132 0.03448,0.0249 0.05374,0.0357 -0.01926,-0.0108 -0.03754,-0.0224 -0.05374,-0.0357 -0.01621,-0.0132 -0.03076,-0.028 -0.04341,-0.0434 -0.01265,-0.0154 -0.02344,-0.0314 -0.03204,-0.0486 -0.0366,-0.0684 -0.07616,-0.14775 -0.119372,-0.23771 z" /><path
           id="path1953"
           style="fill:#ffffff;stroke-width:0.264583"
           d="m 31.657499,94.875863 c -0.475671,-8.55e-4 -0.952762,-5.1e-4 -1.431437,0.001 -0.09525,0.0026 -0.168982,0.07683 -0.168982,0.172083 l -0.06925,20.380674 c 0,0.1217 0.09792,0.21962 0.219624,0.21962 3.508372,-0.03 6.937607,-0.0741 10.287228,-0.13229 0.151694,-0.002 0.292702,-0.0105 0.42323,-0.0264 1.14829,-0.13757 1.20572,-0.29571 0.172082,-0.47387 -0.116416,-0.0209 -0.240812,-0.0321 -0.373103,-0.0341 -2.78165,-0.0353 -5.565217,-0.0786 -8.350395,-0.12971 -0.0979,-0.003 -0.177234,-0.0794 -0.179834,-0.17725 l -0.0739,-8.81342 c -0.0026,-0.0978 0.07665,-0.1831 0.179834,-0.1881 2.192511,-0.12347 4.298826,-0.17331 6.318477,-0.15038 0.146402,0.002 0.262385,-0.01 0.348816,-0.0346 0.268111,-0.0759 0.308929,-0.2106 0.121956,-0.40463 -0.05556,-0.0582 -0.137416,-0.09 -0.227376,-0.093 l -6.371187,-0.1266 c -0.209021,-0.005 -0.378789,-0.175 -0.378789,-0.38138 l 0.0186,-8.622728 c 0.0026,-0.105829 0.0875,-0.190169 0.190686,-0.190169 3.100913,0 6.097071,-0.06451 8.988082,-0.19327 0.102305,-0.0035 0.187524,-0.0223 0.256315,-0.05581 0.174625,-0.08114 0.214622,-0.169334 0.119372,-0.264584 -0.05292,-0.05467 -0.137011,-0.08328 -0.251664,-0.08682 -3.182494,-0.123472 -6.438701,-0.188322 -9.768396,-0.194303 z M 31.210498,104.775 c -0.0026,0.12479 -0.0037,0.26588 -0.0026,0.42375 -0.0011,-0.15787 -6.3e-5,-0.29896 0.0026,-0.42375 z m 0.0739,3.82561 c -0.004,0.13273 -0.0061,0.2639 -0.0062,0.39377 -1.1e-4,0.12987 0.0019,0.25851 0.0057,0.38551 0.0037,0.127 0.0094,0.25258 0.01705,0.37672 0.0076,0.12413 0.01696,0.24667 0.02842,0.36793 -0.01146,-0.12126 -0.02082,-0.2438 -0.02842,-0.36793 -0.0076,-0.12414 -0.0133,-0.24972 -0.01705,-0.37672 -0.0037,-0.127 -0.0058,-0.25564 -0.0057,-0.38551 1.1e-4,-0.12987 0.0022,-0.26104 0.0062,-0.39377 z m -0.470772,1.07693 c -0.0031,0.13141 -0.0087,0.28035 -0.01654,0.44649 0.0078,-0.16614 0.01345,-0.31508 0.01654,-0.44649 z m 0.639238,3.71347 c -0.0012,0.0622 -0.0025,0.12437 -0.0041,0.18655 0.0016,-0.0622 0.0029,-0.12435 0.0041,-0.18655 z" /><path
           id="path1955"
           style="fill:#ffffff;stroke-width:0.264583"
           d="m 46.164624,94.876896 c -0.129646,0 -0.235128,0.105482 -0.235128,0.235128 0.02819,6.833296 0.02904,13.546146 0.0026,20.137786 -0.0018,0.33164 0.218723,0.46721 0.661458,0.40721 3.587747,-0.0635 7.176241,-0.0722 10.765752,-0.0264 0.190497,0.002 0.265359,-0.12509 0.224792,-0.38086 0.0194,-0.11112 0.0036,-0.19768 -0.04754,-0.25941 -0.03881,-0.0474 -0.110388,-0.0719 -0.214457,-0.0739 -2.765775,-0.0741 -5.707782,-0.0937 -8.826335,-0.0584 -0.201083,0.003 -0.365352,-0.15858 -0.365352,-0.35967 l -0.0155,-19.446878 c 0,-0.09525 -0.07942,-0.174666 -0.174667,-0.174666 z m 1.105876,4.836397 c -0.0035,0.661017 -0.005,1.321807 -0.0047,1.982827 3.3e-4,0.66101 0.0025,1.32232 0.0067,1.98334 0.0042,0.66102 0.01055,1.32181 0.0186,1.98282 0.008,0.66102 0.01807,1.32233 0.02997,1.98335 -0.01191,-0.66102 -0.02192,-1.32233 -0.02997,-1.98335 -0.008,-0.66101 -0.01441,-1.3218 -0.0186,-1.98282 -0.0042,-0.66102 -0.0064,-1.32233 -0.0067,-1.98334 -3.31e-4,-0.66102 0.0011,-1.32181 0.0047,-1.982827 z m -0.251148,7.421767 c 0.01653,0.0176 0.03207,0.0357 0.04651,0.0543 0.01444,0.0185 0.02796,0.0374 0.04031,0.0569 0.01234,0.0194 0.02334,0.0391 0.03359,0.0594 0.01025,0.0203 0.01975,0.0409 0.02791,0.062 0.0082,0.0212 0.01512,0.0431 0.02119,0.0651 0.0061,0.022 0.01102,0.0442 0.01499,0.0672 0.004,0.0229 0.0069,0.0465 0.0088,0.0703 0.0019,0.0238 0.0028,0.0482 0.0026,0.0729 2.2e-4,-0.0247 -7.1e-4,-0.049 -0.0026,-0.0729 -0.0019,-0.0238 -0.0048,-0.0473 -0.0088,-0.0703 -0.004,-0.0229 -0.0089,-0.0451 -0.01499,-0.0672 -0.0061,-0.0221 -0.01303,-0.044 -0.02119,-0.0651 -0.0082,-0.0212 -0.01765,-0.0417 -0.02791,-0.062 -0.01025,-0.0203 -0.02124,-0.04 -0.03359,-0.0594 -0.01235,-0.0194 -0.02587,-0.0383 -0.04031,-0.0569 -0.01444,-0.0185 -0.02997,-0.0366 -0.04651,-0.0543 z" /><path
           id="path1957"
           style="fill:#ffffff;stroke-width:0.264583"
           d="m 85.145707,94.914103 c -0.188102,8.3e-5 -0.379436,0.0098 -0.574125,0.02894 -1.287637,0.162278 -2.310592,0.663961 -3.069063,1.505334 -1.464027,1.621013 -1.689129,3.294254 -0.674894,5.019333 0.317499,0.53975 0.793034,1.07681 1.426269,1.61127 0.552097,0.46743 1.138694,0.89343 1.759583,1.27796 0.86254,0.53446 1.703669,1.10228 2.523877,1.70377 0.832555,0.61207 1.511143,1.36254 2.035017,2.25154 0.534459,0.90487 0.758225,1.84128 0.671794,2.80965 -0.08643,0.94015 -0.454181,1.77144 -1.103292,2.49287 -0.984249,1.09361 -2.28758,1.48423 -3.910355,1.17202 -1.931457,-0.37218 -3.447894,-1.5021 -4.54856,-3.38946 -0.275166,-0.47448 -0.562619,-0.52647 -0.86248,-0.15606 -0.05027,0.0609 -0.05829,0.14811 -0.0186,0.22221 0.470957,0.91017 1.08832,1.71017 1.852083,2.39985 1.576915,1.4217 3.370753,2.00204 5.381584,1.74098 0.77611,-0.10054 1.49254,-0.31692 2.148706,-0.64854 0.737304,-0.3757 1.332619,-0.85616 1.785937,-1.44177 1.063625,-1.38288 1.452604,-2.89009 1.166854,-4.52169 -0.194028,-1.11477 -0.682074,-2.15567 -1.463476,-3.12229 -0.733778,-0.91016 -1.643512,-1.66391 -2.730066,-2.26187 -1.314096,-0.7232 -2.533028,-1.62094 -3.656625,-2.69338 -0.620888,-0.59267 -1.005768,-1.113113 -1.153934,-1.561144 -0.231069,-0.693207 -0.121646,-1.386768 0.328145,-2.079976 0.740833,-1.141235 1.838346,-1.630405 3.291789,-1.468127 1.345846,0.151693 2.341315,0.812333 2.986898,1.981791 0.259291,0.462138 0.469421,0.53618 0.629935,0.222208 0.06879,-0.135819 0.07833,-0.286879 0.02894,-0.452685 -0.135819,-0.463902 -0.397944,-0.87739 -0.785998,-1.240751 -0.993951,-0.935301 -2.149225,-1.402561 -3.465939,-1.401982 z m -4.008541,4.142383 c -0.01498,0.08092 -0.02452,0.162188 -0.02894,0.24443 0.0044,-0.08224 0.01395,-0.163512 0.02894,-0.24443 z" /></g><g
         id="COMEDIAS"
         sodipodi:insensitive="true"
         style="display:none"><path
           fill="#ded9ef"
           d="m 23.83212,43.229015 q 0.126509,0.133895 -0.0056,0.221622 -1.186598,0.785828 -2.649301,0.632539 -1.30849,-0.166217 -2.095246,-1.094256 -0.626081,-0.740585 -0.675023,-1.818217 -0.03417,-0.747971 0.180992,-1.381442 0.222544,-0.656554 0.716576,-1.153356 0.654707,-0.656552 1.595675,-0.812612 1.523648,-0.253014 2.834908,0.537434 c 0.0471,0.02862 0.06279,0.08864 0.03601,0.13574 l -0.927117,1.627998 c -0.012,0.02126 -0.0397,0.02676 -0.0591,0.012 q -0.284414,-0.21054 -0.591914,-0.316733 -0.322275,-0.109886 -0.65563,-0.07757 -0.789527,0.07573 -1.070247,0.856936 -0.0868,0.242862 -0.02863,0.526352 0.05079,0.246555 0.212387,0.465406 0.369369,0.498648 0.993603,0.535584 0.309347,0.01846 0.623311,-0.09419 0.314887,-0.111736 0.55867,-0.313966 c 0.04617,-0.03786 0.116352,-0.02492 0.146825,0.02771 z"
           id="path1416"
           style="fill:#ffffff;stroke-width:0.0923422" /><path
           fill="#ded9ef"
           d="m 29.74572,41.655502 q -0.368445,1.43038 -1.64831,2.095242 -0.943738,0.489413 -2.03153,0.287187 -1.119189,-0.207773 -1.860698,-1.066551 -1.132117,-1.462706 -0.534662,-3.162728 0.24009,-0.683334 0.787681,-1.189367 0.514346,-0.475562 1.197678,-0.699955 0.885563,-0.290878 1.775743,-0.0591 0.847702,0.220696 1.479323,0.849546 1.137657,1.133041 0.834775,2.945723 z M 27.833311,40.92969 c 0,-0.65563 -0.530968,-1.186596 -1.186599,-1.186596 -0.655629,0 -1.186598,0.530966 -1.186598,1.186596 0,0.65563 0.530969,1.1866 1.186598,1.1866 0.655631,0 1.186599,-0.53097 1.186599,-1.1866 z"
           id="path1418"
           style="fill:#ffffff;stroke-width:0.0923422"
           clip-path="url(#clipPath745)"
           inkscape:path-effect="#path-effect749"
           inkscape:original-d="m 29.74572,41.655502 q -0.368445,1.43038 -1.64831,2.095242 -0.943738,0.489413 -2.03153,0.287187 -1.119189,-0.207773 -1.860698,-1.066551 -1.132117,-1.462706 -0.534662,-3.162728 0.24009,-0.683334 0.787681,-1.189367 0.514346,-0.475562 1.197678,-0.699955 0.885563,-0.290878 1.775743,-0.0591 0.847702,0.220696 1.479323,0.849546 1.137657,1.133041 0.834775,2.945723 z M 27.833311,40.92969 c 0,-0.65563 -0.530968,-1.186596 -1.186599,-1.186596 -0.655629,0 -1.186598,0.530966 -1.186598,1.186596 0,0.65563 0.530969,1.1866 1.186598,1.1866 0.655631,0 1.186599,-0.53097 1.186599,-1.1866 z" /><path
           fill="#ded9ef"
           d="m 59.041314,38.423522 -0.0037,1.137658 c 0,0.03694 -0.03232,0.06464 -0.06834,0.06002 q -0.313038,-0.04432 -0.614997,-0.02862 -0.155135,0.0074 -0.217929,0.09235 -0.103423,0.140362 0.133897,0.290879 0.531892,0.337972 1.04716,1.11734 0.388763,0.589146 0.321352,1.301102 -0.08126,0.863403 -0.679638,1.297412 -0.450632,0.326885 -1.290023,0.392451 -0.928039,0.07295 -1.844075,-0.189304 l -0.0434,-1.794205 c -0.0011,-0.05448 0.05172,-0.09326 0.105269,-0.07849 q 0.510654,0.142208 1.025001,0.200385 0.293647,0.03417 0.520811,-0.197614 c 0.03878,-0.0397 0.04156,-0.103421 0.0064,-0.146825 q -0.200384,-0.248401 -0.410924,-0.408153 -0.411846,-0.310271 -0.753513,-0.697183 -0.455246,-0.516194 -0.494953,-1.150586 -0.04063,-0.639934 0.313037,-1.136733 0.399845,-0.562367 1.187522,-0.679642 0.766444,-0.115428 1.681556,0.07203 c 0.04525,0.0093 0.07757,0.05079 0.07757,0.09788 z"
           id="path1420"
           style="fill:#ffffff;stroke-width:0.0923422" /><path
           fill="#ded9ef"
           d="m 36.740649,40.339623 -0.01015,3.549636 c 0,0.02676 -0.02031,0.04801 -0.04617,0.04801 l -1.869931,0.0111 c -0.02586,0 -0.0471,-0.02126 -0.0471,-0.04801 l -0.0157,-1.802522 q -9.08e-4,-0.186533 -0.108964,-0.03323 l -1.064707,1.517187 c -0.01293,0.01846 -0.04063,0.01756 -0.05356,-0.0011 l -1.041621,-1.50518 q -0.122816,-0.177297 -0.123739,0.0397 l -0.0064,1.782207 c 0,0.03693 -0.03139,0.06648 -0.06925,0.06648 H 30.46233 c -0.04063,0 -0.07387,-0.03326 -0.07387,-0.07479 l -0.0037,-2.141331 0.02032,-3.791578 c 0,-0.02676 0.02124,-0.04801 0.0471,-0.04801 l 1.511643,-0.01385 c 0.04801,0 0.09419,0.02492 0.122815,0.06741 l 1.445157,2.121102 c 0.01385,0.02032 0.04525,0.02032 0.0591,-0.0011 l 1.431306,-2.11926 c 0.03048,-0.04432 0.07849,-0.07018 0.130202,-0.07018 l 1.532882,0.0056 c 0.02493,0 0.04525,0.02031 0.04525,0.04525 z"
           id="path1422"
           style="fill:#ffffff;stroke-width:0.0923422" /><path
           fill="#ded9ef"
           d="m 38.768486,37.888858 2.084165,0.0037 c 0.02586,0 0.04617,0.02126 0.04617,0.0471 l -0.0064,1.552275 c 0,0.02586 -0.02124,0.04617 -0.0471,0.04617 l -1.48117,0.0083 c -0.02955,0.0011 -0.05356,0.02217 -0.05356,0.04803 l -0.0027,0.44786 c -9.08e-4,0.04987 0.04525,0.09142 0.102499,0.09235 l 1.383288,0.0231 c 0.02678,0 0.04894,0.02217 0.04986,0.04894 l 0.02217,1.42392 c 9.08e-4,0.03878 -0.03232,0.07111 -0.07387,0.07111 l -1.44054,0.0056 c -0.0277,0 -0.04987,0.02031 -0.04894,0.04525 l 0.0093,0.486643 c 9.08e-4,0.02586 0.02309,0.0471 0.05171,0.0471 l 1.485787,0.02217 c 0.06187,0.0011 0.111734,0.04987 0.111734,0.108964 l -0.0037,1.471009 c -9.07e-4,0.02676 -0.02124,0.04801 -0.0471,0.04801 l -3.525629,0.02678 c -0.03879,0 -0.07018,-0.03232 -0.07018,-0.07202 l -0.0037,-2.697319 0.0046,-3.25414 c 0,-0.02586 0.02124,-0.0471 0.04801,-0.0471 z"
           id="path1424"
           style="fill:#ffffff;stroke-width:0.0923422" /><path
           fill="#ded9ef"
           d="m 46.798572,40.593566 q 0.01477,0.242855 -0.01939,0.715653 -0.06834,0.952047 -0.635315,1.610447 -0.327815,0.379528 -0.851397,0.633468 -0.503265,0.242859 -1.029616,0.31858 -0.527274,0.07572 -1.362049,0.08864 l -1.249391,0.0037 c -0.06187,0 -0.112657,-0.05079 -0.112657,-0.113582 v -5.886825 c 0,-0.03601 0.02862,-0.06556 0.06464,-0.06649 q 1.255855,-0.02956 2.54403,0.06464 0.542973,0.0397 1.097027,0.305652 0.551283,0.264097 0.900338,0.661169 0.599301,0.683334 0.653783,1.664932 z m -2.253153,1.15982 Q 44.813212,41.444962 44.839068,41.036808 44.864,40.65451 44.68855,40.311922 44.373663,39.699691 43.574902,39.69877 c -0.02586,0 -0.04617,0.02031 -0.04617,0.04617 l 0.01108,2.331644 c 0,0.02676 0.02124,0.04801 0.04801,0.04987 q 0.597454,0.04248 0.957589,-0.373061 z"
           id="path1426"
           style="fill:#ffffff;stroke-width:0.0923422"
           clip-path="url(#clipPath753)"
           inkscape:path-effect="#path-effect757"
           inkscape:original-d="m 46.798572,40.593566 q 0.01477,0.242855 -0.01939,0.715653 -0.06834,0.952047 -0.635315,1.610447 -0.327815,0.379528 -0.851397,0.633468 -0.503265,0.242859 -1.029616,0.31858 -0.527274,0.07572 -1.362049,0.08864 l -1.249391,0.0037 c -0.06187,0 -0.112657,-0.05079 -0.112657,-0.113582 v -5.886825 c 0,-0.03601 0.02862,-0.06556 0.06464,-0.06649 q 1.255855,-0.02956 2.54403,0.06464 0.542973,0.0397 1.097027,0.305652 0.551283,0.264097 0.900338,0.661169 0.599301,0.683334 0.653783,1.664932 z m -2.253153,1.15982 Q 44.813212,41.444962 44.839068,41.036808 44.864,40.65451 44.68855,40.311922 44.373663,39.699691 43.574902,39.69877 c -0.02586,0 -0.04617,0.02031 -0.04617,0.04617 l 0.01108,2.331644 c 0,0.02676 0.02124,0.04801 0.04801,0.04987 q 0.597454,0.04248 0.957589,-0.373061 z" /><path
           fill="#ded9ef"
           d="m 49.437714,43.917885 q -0.03139,0.04617 -0.142207,0.04617 -0.900337,0 -1.909639,0 c -0.02863,0 -0.05263,-0.02401 -0.05263,-0.05356 l -0.0037,-3.432359 0.0093,-2.534799 c 0,-0.02586 0.02032,-0.04617 0.04617,-0.04617 l 1.9909,0.01756 c 0.03232,0.0011 0.05818,0.02771 0.05818,0.06187 z"
           id="path1428"
           style="fill:#ffffff;stroke-width:0.0923422" /><path
           fill="#ded9ef"
           d="m 55.709603,43.917885 q -0.0628,0.04248 -0.250247,0.04617 -0.82,0.01661 -1.639077,-0.02125 c -0.02955,-0.0011 -0.05633,-0.01571 -0.07202,-0.03879 q -0.106193,-0.160673 -0.13482,-0.349974 c -0.01293,-0.08311 -0.08311,-0.144054 -0.165292,-0.143128 l -1.515337,0.0046 c -0.03047,0 -0.06002,0.0111 -0.08033,0.03047 q -0.137591,0.132046 -0.156982,0.341665 c -0.0083,0.08588 -0.07942,0.152363 -0.165293,0.153284 q -0.86063,0.0111 -1.703715,0.0231 -0.185608,0.0028 -0.138514,-0.134819 l 2.22822,-5.887744 c 0.01015,-0.02676 0.03509,-0.04432 0.0628,-0.04432 h 1.420224 c 0.0277,0 0.05263,0.01756 0.06187,0.0434 z m -3.095314,-2.592972 -0.216081,0.571599 c -0.02031,0.05356 0.01293,0.109889 0.0628,0.108965 l 0.502343,-0.01291 c 0.02401,0 0.0397,-0.02677 0.02955,-0.05172 L 52.74173,41.321232 q -0.06556,-0.159753 -0.127432,0.0037 z"
           id="path1430"
           style="fill:#ffffff;stroke-width:0.0923422"
           clip-path="url(#clipPath761)"
           inkscape:path-effect="#path-effect765"
           inkscape:original-d="m 55.709603,43.917885 q -0.0628,0.04248 -0.250247,0.04617 -0.82,0.01661 -1.639077,-0.02125 c -0.02955,-0.0011 -0.05633,-0.01571 -0.07202,-0.03879 q -0.106193,-0.160673 -0.13482,-0.349974 c -0.01293,-0.08311 -0.08311,-0.144054 -0.165292,-0.143128 l -1.515337,0.0046 c -0.03047,0 -0.06002,0.0111 -0.08033,0.03047 q -0.137591,0.132046 -0.156982,0.341665 c -0.0083,0.08588 -0.07942,0.152363 -0.165293,0.153284 q -0.86063,0.0111 -1.703715,0.0231 -0.185608,0.0028 -0.138514,-0.134819 l 2.22822,-5.887744 c 0.01015,-0.02676 0.03509,-0.04432 0.0628,-0.04432 h 1.420224 c 0.0277,0 0.05263,0.01756 0.06187,0.0434 z m -3.095314,-2.592972 -0.216081,0.571599 c -0.02031,0.05356 0.01293,0.109889 0.0628,0.108965 l 0.502343,-0.01291 c 0.02401,0 0.0397,-0.02677 0.02955,-0.05172 L 52.74173,41.321232 q -0.06556,-0.159753 -0.127432,0.0037 z" /></g><g
         id="Competencias"
         transform="matrix(0.30447266,0,0,0.30447266,28.986647,10.934015)"
         style="display:none;fill:#ffffff"><path
           fill="#dedaef"
           d="m 72.769084,90.681244 q 0.672041,2.256896 0.584729,4.976813 c -0.0053,0.132291 -0.113771,0.238125 -0.248709,0.238125 h -3.212041 c -0.134938,0 -0.243417,-0.111125 -0.238125,-0.246063 q 0.04233,-1.542521 -0.08467,-2.860146 -0.07408,-0.804333 -0.568854,-1.307041 -0.486833,-0.492125 -1.222375,-0.465667 -0.727604,0.02646 -1.201208,0.531812 -0.367771,0.388938 -0.518584,1.113896 -0.169333,0.796396 -0.169333,1.844146 0,4.431771 -0.05292,8.863541 -0.01323,1.16417 0.3175,1.78594 0.714375,1.34144 2.047875,1.06098 0.687917,-0.14552 1.031875,-0.78317 0.343959,-0.63765 0.394229,-1.39965 0.07144,-1.15622 0.02117,-2.62202 c -0.0053,-0.1217 0.09525,-0.22489 0.219604,-0.22489 h 3.214688 c 0.150812,0 0.272521,0.11906 0.275166,0.26987 q 0.04233,2.18282 -0.275166,4.07988 -0.433917,2.58762 -3.159125,3.45546 -1.177396,0.3757 -3.571875,0.14287 -3.958167,-0.94985 -4.233333,-5.10381 -0.127,-1.91294 -0.07408,-7.299855 0,-0.02646 -0.02117,-1.669521 -0.02646,-2.018771 0.425979,-3.466042 1.010708,-3.2385 4.564062,-3.439583 1.344084,-0.07673 1.920875,-0.0291 2.645833,0.216958 3.833813,2.553229 z"
           id="path975"
           style="fill:#ffffff;stroke-width:0.264583" /><path
           fill="#e6e3f2"
           d="m -24.983873,102.44462 q -0.07673,0.65881 -0.06879,1.32292 0.01323,1.72508 -0.709083,3.28083 -0.873125,1.88383 -3.069167,2.07698 -0.949854,0.0847 -1.457854,0.0635 -2.198688,-0.0926 -3.299354,-1.5875 -0.714375,-0.97102 -0.96573,-3.19881 -0.293687,-2.61673 -0.174625,-5.265213 -0.0053,-1.232958 0.07673,-5.622395 0.02381,-1.246188 0.36777,-2.338917 0.391584,-1.232958 1.203855,-1.973792 0.949854,-0.865187 2.25425,-1.031875 1.19327,-0.153458 2.39977,0.01852 2.087563,0.293688 2.886605,2.365375 0.706437,1.836208 0.428625,4.283604 c -0.01058,0.08467 -0.0635,0.156104 -0.14023,0.182563 q -0.513291,0.1905 -1.026583,0.01323 c -0.07408,-0.02646 -0.121708,-0.0979 -0.121708,-0.182563 q 0,-2.061104 -0.314854,-3.122083 -0.833438,-2.794 -3.770313,-2.248958 -1.68275,0.312208 -2.315104,1.984375 -0.119063,0.312208 -0.246063,1.098021 -0.08467,0.521229 -0.0979,1.116541 -0.04498,2.209271 -0.05292,7.442727 -0.0026,1.48961 0.08202,2.68288 0.124354,1.78329 0.584729,2.59291 0.902229,1.59544 3.169708,1.45257 2.037292,-0.1323 2.577042,-2.09815 0.428625,-1.5584 0.320146,-3.3946 c -0.0079,-0.15875 0.111125,-0.29634 0.269875,-0.30957 q 0.542396,-0.0423 1.066271,0.0661 0.193145,0.0397 0.142875,0.33073 z"
           id="path977"
           style="fill:#ffffff;stroke-width:0.264583" /><path
           fill="#e1ddf0"
           d="m -12.614603,101.45243 q 0.105834,2.60879 -0.341312,4.36563 -0.645584,2.5347 -2.992438,3.15912 -1.148291,0.30427 -2.513541,0.19315 -1.468438,-0.11907 -2.389188,-0.6694 -1.524,-0.91017 -1.960562,-2.88131 -0.333375,-1.50283 -0.341313,-2.77813 -0.140229,-4.532309 0.01588,-9.061975 0.03704,-1.04775 0.288396,-2.053167 0.288396,-1.156229 0.822854,-1.878541 1.071563,-1.447271 3.045354,-1.66423 1.764771,-0.195791 3.114146,0.17198 1.584854,0.43127 2.365375,1.801812 0.679979,1.198563 0.809625,2.696104 0.121708,1.412875 0.07673,8.598957 z m -7.037916,5.50598 q 1.119187,0.67733 2.534708,0.40746 1.801812,-0.34131 2.177521,-2.14313 0.240771,-1.15358 0.227541,-3.1697 -0.01852,-2.360088 -0.01852,-2.391838 0.04498,-5.299604 -0.07673,-6.94002 -0.185208,-2.495021 -2.513541,-2.844271 -2.711979,-0.407459 -3.444875,2.198687 -0.259292,0.92075 -0.259292,1.439334 0,4.299479 0,8.598958 0,1.651 0.240771,3.01625 0.113771,0.64823 0.346604,1.03187 0.309563,0.51065 0.785813,0.7964 z"
           id="path979"
           style="fill:#ffffff;stroke-width:0.264583" /><path
           fill="#e6e3f2"
           d="m 100.69321,105.02431 q -0.045,2.45533 -1.915585,3.54541 -0.764646,0.44715 -1.963208,0.55563 -1.264709,0.11377 -2.069042,-0.082 -2.439458,-0.60061 -3.137958,-3.02419 -0.291042,-1.01071 -0.433917,-2.05581 c -0.01323,-0.09 0.0291,-0.17463 0.0979,-0.19844 l 1.127125,-0.42069 c 0.06615,-0.0238 0.140229,0.0265 0.156104,0.10848 q 0.375708,1.87854 0.60325,2.41565 0.907521,2.13254 3.423708,1.9341 1.11125,-0.0873 1.778,-0.72231 0.590021,-0.56092 0.788459,-1.60867 0.320145,-1.69598 -0.71173,-3.23056 -0.383645,-0.56885 -0.849312,-1.06892 -3.614208,-3.847038 -4.362979,-4.564059 -1.629833,-1.566334 -1.944688,-3.622146 -0.298979,-4.783667 4.5085,-4.884208 3.802063,-0.07937 4.497913,3.627437 0.16404,0.878417 0.17992,1.502833 c 0.003,0.08202 -0.045,0.15875 -0.12171,0.187855 q -0.505352,0.198437 -1.084789,0.15875 c -0.08996,-0.0053 -0.15875,-0.08202 -0.161396,-0.17198 Q 99.081905,92.247597 98.682379,91.284514 98.2564,90.263222 97.46265,89.800202 96.608046,89.300139 95.457108,89.41391 q -1.862666,0.182562 -2.497666,1.592792 -0.439209,0.981604 -0.132292,2.132541 0.291042,1.090084 1.137708,1.934104 2.055813,2.04523 4.066646,4.135438 1.053042,1.095375 1.833562,2.397125 0.941914,1.57162 0.828144,3.41842 z"
           id="path983"
           style="fill:#ffffff;stroke-width:0.264583" /><path
           fill="#dedaef"
           d="m 2.9085012,96.954515 0.1481666,11.832165 c 0.00265,0.11377 -0.089958,0.20638 -0.2010833,0.20638 H 0.7415637 c -0.0740833,0 -0.1349375,-0.0609 -0.13758333,-0.13759 L 0.4081887,95.583973 c -0.002646,-0.07144 -0.0238125,-0.127 -0.0608542,-0.150812 Q 0.2811887,95.390827 0.24150121,95.557515 -1.3010196,102.2012 -2.7747488,108.88987 c -0.013229,0.0609 -0.068792,0.10319 -0.1296458,0.10319 h -1.5742708 c -0.079375,0 -0.1481667,-0.0556 -0.1640417,-0.1323 L -7.6986445,95.496661 c -0.026458,-0.116417 -0.092604,-0.198438 -0.1455209,-0.185209 q -0.071438,0.02117 -0.074083,0.254 -0.021167,6.416148 -0.079375,13.197418 c -0.00265,0.11906 -0.097896,0.21696 -0.2143125,0.21696 l -2.0690421,0.0132 c -0.132291,0 -0.238125,-0.11113 -0.235479,-0.24607 l 0.129646,-7.22841 0.214312,-12.909023 c 0.0026,-0.166688 0.14023,-0.29898 0.3095631,-0.304271 l 2.5029583,-0.06085 c 0.1084792,-0.0026 0.2010834,0.07144 0.2248959,0.174625 l 3.3072916,15.303499 q 0.127,0.58737 0.2566458,0 l 3.34697914,-15.382874 c 0.015875,-0.07408 0.0846667,-0.124355 0.1666875,-0.121709 l 2.64318746,0.07144 c 0.074083,0.0026 0.1322917,0.05821 0.1349375,0.129646 z"
           id="path985"
           style="fill:#ffffff;stroke-width:0.264583" /><path
           fill="#dedaef"
           d="m 16.071522,91.464411 q 0.478896,1.894416 0.277812,3.836458 -0.425979,4.124854 -4.566708,4.492625 -1.254125,0.111125 -2.5320624,0.07144 c -0.1349375,-0.0053 -0.2460625,0.103188 -0.2460625,0.238126 v 8.71273 c 0,0.0979 -0.079375,0.17727 -0.1772708,0.17727 H 5.419397 c -0.1375834,0 -0.2513542,-0.11377 -0.2513542,-0.25136 l -0.010583,-12.911661 0.010583,-7.381875 c 0,-0.0979 0.082021,-0.179917 0.1799167,-0.177271 q 2.8389791,0.03175 5.4424795,0.01852 0.965729,-0.0026 1.902354,0.182562 1.060979,0.209021 1.748896,0.701146 1.164166,0.828146 1.629833,2.291292 z m -3.902604,0.246062 Q 10.750751,90.850577 9.2161678,91.186598 c -0.076729,0.01852 -0.1322917,0.08467 -0.1375834,0.164042 q -0.1719791,2.735792 -0.015875,5.471583 c 0.00529,0.07938 0.060854,0.142875 0.1375834,0.153459 q 1.3017502,0.203729 2.5135412,-0.314855 0.71173,-0.30427 0.928688,-1.359958 0.370417,-1.807104 -0.309563,-3.402542 c -0.03439,-0.07673 -0.0926,-0.142875 -0.164041,-0.187854 z"
           id="path987"
           style="fill:#ffffff;stroke-width:0.264583" /><path
           fill="#dedaef"
           d="m 26.731584,88.299994 q 0.07673,1.645708 -0.341312,3.230563 l -4.201584,-0.134938 c -0.124354,-0.0026 -0.227541,0.0926 -0.227541,0.214313 l -0.03969,4.566708 c -0.0026,0.246062 0.203729,0.447146 0.460375,0.447146 h 2.928938 c 0.119062,0 0.214312,0.0926 0.214312,0.209021 l 0.0026,2.682874 c 0,0.07937 -0.05821,0.142875 -0.132292,0.145521 l -3.2385,0.06085 c -0.137583,0.0026 -0.248708,0.105834 -0.246062,0.232834 l 0.05027,5.580064 c 0.0026,0.23284 0.201083,0.42069 0.447146,0.42334 l 4.074583,0.037 c 0.07937,0 0.142875,0.0609 0.142875,0.13493 v 2.74903 c 0,0.0714 -0.0635,0.12964 -0.140229,0.12964 l -8.35025,-0.0159 q -0.531813,0 -0.531813,-0.53182 l -0.01058,-16.996833 0.01058,-2.968625 c 0,-0.105834 0.08202,-0.193146 0.187854,-0.195792 q 4.609042,-0.169333 8.940271,0 z"
           id="path989"
           style="fill:#ffffff;stroke-width:0.264583" /><path
           fill="#dedaef"
           d="m 33.14773,88.212682 4.116917,0.02646 c 0.171979,0.0026 0.309562,0.137583 0.306916,0.301625 l -0.0344,3.137958 c -0.0026,0.07937 -0.0635,0.142875 -0.140229,0.145521 l -2.542646,0.105833 c -0.140229,0.0053 -0.251354,0.119063 -0.251354,0.254 l -0.04763,16.629061 c -0.0026,0.0741 -0.06085,0.13494 -0.132291,0.13494 l -4.3815,0.0423 c -0.07408,0 -0.134938,-0.0635 -0.134938,-0.14023 l -0.01587,-16.528517 c -0.0026,-0.235479 -0.203729,-0.436563 -0.468312,-0.457729 l -2.492375,-0.211667 q 0.140229,-0.388938 0.06615,-1.113896 -0.03969,-0.402167 0.132291,-2.238375 z"
           id="path991"
           style="fill:#ffffff;stroke-width:0.264583" /><path
           fill="#dedaef"
           d="m 43.350063,105.67783 4.177771,0.0635 c 0.193146,0.003 0.34925,0.15875 0.346604,0.34925 l -0.05821,2.75431 c -0.0026,0.0741 -0.06085,0.13229 -0.132292,0.13229 l -9.001125,0.0159 c -0.0979,0 -0.177271,-0.0794 -0.177271,-0.17727 V 88.559286 c 0,-0.148167 0.116417,-0.267229 0.261938,-0.267229 l 8.707437,-0.0026 c 0.148167,0 0.269875,0.124354 0.275167,0.277812 l 0.0635,2.772834 c 0.0026,0.103187 -0.07937,0.1905 -0.182563,0.1905 q -1.778,0 -3.497791,0 -0.03175,0 -0.402167,-0.02911 -0.672042,-0.05027 -0.629708,0.635 0.0291,0.470959 0.02646,0.513292 -0.03969,1.815042 0.08202,3.624792 c 0.0053,0.07673 0.06615,0.137583 0.140229,0.137583 l 3.214688,0.01323 c 0.07937,0 0.142875,0.0635 0.142875,0.142875 v 2.992438 c 0,0.0926 -0.07144,0.166687 -0.15875,0.169333 l -3.15648,0.06615 c -0.0926,0.0026 -0.169333,0.07408 -0.174625,0.161396 q -0.187854,2.902478 -0.0079,5.577418 c 0.0053,0.0794 0.06615,0.14288 0.140229,0.14288 z"
           id="path993"
           style="fill:#ffffff;stroke-width:0.264583" /><path
           fill="#dedaef"
           d="m 52.930626,98.761619 q -0.20373,-0.470958 -0.20373,0.03969 v 10.059451 c 0,0.0741 -0.05821,0.1323 -0.132291,0.1323 h -3.341688 c -0.127,0 -0.230187,-0.10319 -0.230187,-0.23019 V 88.405827 c 0,-0.07408 0.06085,-0.134937 0.134937,-0.134937 l 2.756959,0.0344 c 0.08202,0 0.156104,0.05027 0.185208,0.124354 q 1.955271,4.802187 4.045479,9.548812 0.05027,0.10848 0.111125,0.14023 0.129646,0.0635 0.134937,-0.238125 0.05027,-4.738688 0.02381,-9.477375 c 0,-0.07144 0.05821,-0.129646 0.132292,-0.129646 l 3.214687,0.01588 c 0.0926,0 0.171979,0.07408 0.177271,0.166687 q 0.105833,2.076979 0.06879,4.167188 -0.04762,2.743729 -0.02117,4.164541 0.08202,4.318004 -0.0291,8.633354 -0.04233,1.65365 0.05292,3.43694 c 0.0026,0.0741 -0.05556,0.13494 -0.129645,0.13494 h -2.592917 c -0.164042,0 -0.309563,-0.10319 -0.367771,-0.25665 q -1.918229,-5.15144 -3.989916,-9.974792 z"
           id="path995"
           style="fill:#ffffff;stroke-width:0.264583" /><path
           fill="#e1ddf0"
           d="m 75.348771,88.233848 2.82575,0.07144 c 0.07408,0.0026 0.134938,0.06085 0.134938,0.132291 l -0.03969,14.800791 0.06085,5.40279 c 0.0026,0.1905 -0.142875,0.3466 -0.320146,0.34396 l -2.547937,-0.0317 c -0.07144,-0.003 -0.129646,-0.0662 -0.129646,-0.14288 z"
           id="path997"
           style="fill:#ffffff;stroke-width:0.264583" /><path
           fill="#e1ddf0"
           d="m 87.321167,94.451557 2.936875,14.263683 c 0.02646,0.13759 -0.07144,0.26723 -0.203729,0.26459 l -1.690688,-0.0238 c -0.07673,0 -0.142875,-0.0609 -0.15875,-0.14287 l -0.947208,-5.23081 c -0.01587,-0.0847 -0.08731,-0.14552 -0.171979,-0.14552 h -4.201584 c -0.150812,0 -0.283104,0.10583 -0.309562,0.25135 l -0.955146,5.1726 c -0.01587,0.0767 -0.08202,0.1323 -0.15875,0.1323 h -1.669521 c -0.132291,0 -0.232833,-0.12171 -0.206375,-0.25136 l 1.595438,-7.95073 2.624666,-12.422184 c 0.01587,-0.07144 0.08202,-0.124354 0.15875,-0.121709 l 1.854729,0.04233 c 0.121709,0.0026 0.224896,0.08996 0.248709,0.211666 z M 84.762646,92.133807 82.982,101.58737 c -0.0291,0.16404 0.0926,0.31485 0.256646,0.31485 l 3.243792,0.0132 c 0.235479,0 0.41275,-0.2196 0.365125,-0.45244 q -0.80698,-3.974037 -1.513417,-8.024808 -0.132292,-0.772583 -0.455083,-1.322916 -0.08467,-0.145521 -0.116417,0.01852 z"
           id="path999"
           style="fill:#ffffff;stroke-width:0.264583" /></g><g
         id="CINE"
         sodipodi:insensitive="true"
         style="display:none"><path
           fill="#000000"
           d="m 43.119119,36.479105 q 0.947611,0.797987 1.179027,1.91916 0.06384,0.307225 0.07581,2.156563 0.01,1.647844 -0.02194,3.293694 c -0.0019,0.05785 -0.04588,0.103738 -0.09975,0.103738 l -1.37653,0.0019 c -0.05386,0 -0.09576,-0.04788 -0.09376,-0.105734 q 0.05985,-1.937115 0.03392,-3.876226 -0.008,-0.61445 -0.06583,-1.063318 -0.07182,-0.562582 -0.391013,-0.959581 -0.744124,-0.919681 -1.897216,-0.680285 -0.782029,0.159598 -1.190998,0.70622 -0.434903,0.582531 -0.395003,1.448347 0.05586,1.250846 -0.03392,4.452773 c -0.0019,0.05386 -0.04788,0.09576 -0.105733,0.09576 l -1.318675,-0.01 c -0.07381,0 -0.133663,-0.05786 -0.135658,-0.131669 q -0.03192,-2.300199 0.02194,-4.484691 0.02793,-1.063318 0.311214,-1.68974 0.845868,-1.857316 3.056294,-2.022899 1.326655,-0.09975 2.447828,0.845868 z"
           id="path2753"
           style="fill:#ffffff;stroke-width:0.199497" /><path
           fill="#000000"
           d="m 28.547861,42.364265 q 0.568566,0.008 1.167057,0.0019 c 0.07381,-0.0019 0.133663,0.05786 0.133663,0.131667 v 1.36057 c 0,0.05786 -0.04588,0.103738 -0.103738,0.103738 q -0.618441,0 -1.141123,0.02594 -2.322145,0.111718 -3.680718,-1.584006 -0.790009,-0.987509 -0.815943,-2.443838 -0.0399,-2.310174 1.763553,-3.567006 0.887761,-0.616445 2.026889,-0.664324 0.530661,-0.02194 0.905716,-0.04588 0.454853,-0.02793 0.911701,0.02594 c 0.05985,0.0059 0.103739,0.05386 0.105734,0.109723 l 0.01995,1.39249 c 0.0019,0.06384 -0.05386,0.117703 -0.121693,0.117703 q -0.692254,0 -1.266806,-0.01197 -1.635874,-0.0359 -2.344089,1.097234 -0.590511,0.945615 -0.327175,2.092723 0.289271,1.27279 1.619915,1.707694 0.430913,0.141643 1.147108,0.149623 z"
           id="path2755"
           style="fill:#ffffff;stroke-width:0.199497" /><rect
           fill="#000000"
           x="32.743282"
           y="35.683109"
           width="1.643855"
           height="8.2871037"
           rx="0.053864181"
           id="rect2757"
           style="fill:#ffffff;stroke-width:0.199497" /><path
           fill="#000000"
           d="m 48.070634,40.38326 q 0.111718,1.426403 1.236881,1.91517 0.801978,0.347125 1.703704,0.151618 0.879782,-0.189522 1.566051,-0.893746 c 0.04788,-0.04788 0.123689,-0.04988 0.171568,-0.0019 l 0.859831,0.873796 c 0.0399,0.0419 0.0379,0.105734 -0.0019,0.147629 q -1.288751,1.330644 -2.988465,1.396478 -1.605951,0.06184 -2.780988,-0.831902 -1.264811,-0.965565 -1.436378,-2.818893 -0.141643,-1.526151 0.604476,-2.842831 0.877786,-1.548096 2.846821,-1.697719 2.354064,-0.177552 3.495187,1.60994 0.391014,0.610461 0.520687,1.334635 0.123688,0.692254 0.05985,1.460317 c -0.004,0.04788 -0.04389,0.08579 -0.09377,0.08579 l -5.667708,0.01196 c -0.05586,0 -0.09975,0.04588 -0.09576,0.09975 z m 2.834852,-3.134097 q -2.088733,-0.67031 -2.824877,1.587995 c -0.02992,0.09377 0.0399,0.187527 0.137652,0.187527 l 4.013879,-0.01196 c 0.05386,0 0.09377,-0.04588 0.08778,-0.09975 Q 52.25209,38.30451 51.892996,37.865616 51.559837,37.458642 50.905487,37.249171 Z"
           id="path2759"
           style="fill:#ffffff;stroke-width:0.199497"
           clip-path="url(#clipPath816)"
           inkscape:path-effect="#path-effect820"
           inkscape:original-d="m 48.070634,40.38326 q 0.111718,1.426403 1.236881,1.91517 0.801978,0.347125 1.703704,0.151618 0.879782,-0.189522 1.566051,-0.893746 c 0.04788,-0.04788 0.123689,-0.04988 0.171568,-0.0019 l 0.859831,0.873796 c 0.0399,0.0419 0.0379,0.105734 -0.0019,0.147629 q -1.288751,1.330644 -2.988465,1.396478 -1.605951,0.06184 -2.780988,-0.831902 -1.264811,-0.965565 -1.436378,-2.818893 -0.141643,-1.526151 0.604476,-2.842831 0.877786,-1.548096 2.846821,-1.697719 2.354064,-0.177552 3.495187,1.60994 0.391014,0.610461 0.520687,1.334635 0.123688,0.692254 0.05985,1.460317 c -0.004,0.04788 -0.04389,0.08579 -0.09377,0.08579 l -5.667708,0.01196 c -0.05586,0 -0.09975,0.04588 -0.09576,0.09975 z m 2.834852,-3.134097 q -2.088733,-0.67031 -2.824877,1.587995 c -0.02992,0.09377 0.0399,0.187527 0.137652,0.187527 l 4.013879,-0.01196 c 0.05386,0 0.09377,-0.04588 0.08778,-0.09975 Q 52.25209,38.30451 51.892996,37.865616 51.559837,37.458642 50.905487,37.249171 Z" /></g><g
         id="Channel"
         style="display:none;fill:#ffffff"
         transform="matrix(0.97432424,0,0,0.97432424,0.35702174,-12.511597)"><path
           fill="#ffffff"
           d="m 20.533336,57.738383 q -0.502389,-0.424514 -0.646743,-1.021873 -0.113014,-0.466301 -0.06363,-1.011427 0.04938,-0.544176 0.34474,-0.978188 0.40837,-0.601158 1.168127,-0.800594 0.732216,-0.190889 1.522364,0.05128 c 0.06173,0.01899 0.09687,0.09212 0.07977,0.168096 L 22.8373,54.603435 c -0.01424,0.06553 -0.07597,0.105416 -0.129158,0.08357 q -0.742663,-0.305802 -1.310582,0.02374 -0.523283,0.303903 -0.671435,0.943049 -0.09877,0.422615 0.02279,0.852828 0.117763,0.420715 0.43971,0.691379 0.65719,0.550824 1.581245,0.1548 c 0.02469,-0.01045 0.05223,0.0028 0.05698,0.02754 l 0.12346,0.604007 c 0.0066,0.03229 -0.0133,0.06458 -0.04653,0.07597 q -0.503339,0.177594 -1.081704,0.164298 -0.735066,-0.0171 -1.288739,-0.486245 z"
           id="path2450"
           style="fill:#ffffff;stroke-width:0.0949697" /><path
           fill="#ffffff"
           d="m 26.81463,55.634805 1.47013,9.5e-4 c 0.04938,0 0.09022,-0.03894 0.09022,-0.08737 V 53.96809 c 0,-0.02944 0.02279,-0.05318 0.05128,-0.05318 l 0.743612,-0.0057 c 0.03609,0 0.06553,0.03039 0.06553,0.06743 l 9.5e-4,4.134029 c 0,0.02659 -0.02184,0.04843 -0.04844,0.04843 h -0.766405 c -0.03514,0 -0.06458,-0.02944 -0.06363,-0.06553 l 0.01709,-1.671466 c 9.5e-4,-0.05033 -0.04084,-0.09117 -0.09307,-0.09117 H 26.83266 c -0.04938,0 -0.08927,0.04179 -0.08832,0.09212 l 0.0152,1.654372 c 0,0.04464 -0.03704,0.08167 -0.08167,0.08167 l -0.725568,-0.0047 c -0.03894,0 -0.07028,-0.03229 -0.07028,-0.07218 l 0.0057,-4.096041 c 0,-0.02944 0.02089,-0.05318 0.04653,-0.05413 l 0.760707,-0.01045 c 0.02659,-9.5e-4 0.04843,0.02279 0.04938,0.05223 l 0.02184,1.616383 c 9.5e-4,0.02469 0.02184,0.04464 0.04844,0.04464 z"
           id="path2452"
           style="fill:#ffffff;stroke-width:0.0949697" /><path
           fill="#ffffff"
           d="m 34.755993,57.119181 -1.47203,0.01045 c -0.02849,9.49e-4 -0.05318,0.01899 -0.06363,0.04748 l -0.358035,0.920256 c -0.01045,0.02754 -0.03514,0.04654 -0.06458,0.04938 q -0.416917,0.04179 -0.830984,-0.01045 c -0.02469,-0.0038 -0.04084,-0.02849 -0.03229,-0.05128 l 1.491024,-4.12928 c 0.01045,-0.02754 0.03704,-0.04654 0.06648,-0.04654 h 1.045616 c 0.06648,0 0.12536,0.04179 0.148153,0.104467 l 1.464432,4.065651 c 0.01425,0.03894 -0.01424,0.07977 -0.05508,0.07977 h -0.806293 c -0.05223,0 -0.101617,-0.03704 -0.12346,-0.09402 l -0.340941,-0.902212 c -0.01045,-0.02659 -0.03799,-0.04464 -0.06838,-0.04369 z m -1.248851,-0.734116 1.040867,-0.0028 c 0.02469,0 0.04084,-0.02469 0.03324,-0.04938 l -0.492892,-1.547056 q -0.05793,-0.182341 -0.117762,0 l -0.504289,1.537559 c -0.0095,0.03039 0.01045,0.06173 0.04084,0.06173 z"
           id="path2454"
           style="fill:#ffffff;stroke-width:0.0949697" /><path
           fill="#ffffff"
           d="m 39.682069,55.52654 -0.0114,2.579376 c 0,0.02659 -0.02089,0.04843 -0.04749,0.04843 l -0.715122,0.0047 c -0.03419,0 -0.06268,-0.02849 -0.06268,-0.06363 v -4.105538 c 0,-0.04464 0.03609,-0.08073 0.08072,-0.08073 h 0.647693 c 0.06078,0 0.117763,0.03039 0.150053,0.08073 l 1.677164,2.569879 q 0.07787,0.120611 0.07882,-0.02374 l 0.01804,-2.562281 c 0,-0.02754 0.02184,-0.05033 0.04843,-0.05128 l 0.713222,-0.01045 c 0.02849,-9.5e-4 0.05223,0.02374 0.05223,0.05413 l 0.0066,4.142577 c 0,0.02754 -0.02279,0.05033 -0.05033,0.05033 H 41.57569 c -0.02944,0 -0.05793,-0.01519 -0.07408,-0.03989 l -1.748392,-2.613565 q -0.07123,-0.106366 -0.07123,0.02089 z"
           id="path2456"
           style="fill:#ffffff;stroke-width:0.0949697" /><path
           fill="#ffffff"
           d="m 47.933033,56.538916 0.02279,-2.56513 c 0,-0.02849 0.02089,-0.05223 0.04748,-0.05223 l 0.701826,9.49e-4 c 0.02659,0 0.04748,0.02279 0.04748,0.05128 l 0.0171,4.114085 c 9.49e-4,0.02944 -0.02089,0.05318 -0.04749,0.05413 l -0.65814,0.0085 c -0.04558,9.5e-4 -0.09022,-0.02564 -0.119662,-0.06933 l -1.742681,-2.61921 q -0.04369,-0.06648 -0.04369,0.0133 v 2.588873 c 0,0.04938 -0.03704,0.08832 -0.08167,0.08737 l -0.696128,-0.0152 c -0.02564,-9.5e-4 -0.04653,-0.02374 -0.04653,-0.05318 l -9.49e-4,-4.108387 c 0,-0.03609 0.02849,-0.06553 0.06458,-0.06553 h 0.68758 c 0.04464,0 0.08737,0.02279 0.113014,0.06173 l 1.707555,2.575577 q 0.02659,0.03989 0.02754,-0.0076 z"
           id="path2458"
           style="fill:#ffffff;stroke-width:0.0949697" /><path
           fill="#ffffff"
           d="m 52.740397,57.417386 1.615434,0.02184 c 0.02849,9.49e-4 0.05128,0.02279 0.05223,0.05033 l 0.0066,0.570767 c 9.5e-4,0.05413 -0.04559,0.09782 -0.102567,0.09782 l -2.438821,-0.01615 c -0.02659,0 -0.04748,-0.02089 -0.04748,-0.04749 l 9.5e-4,-4.120733 c 0,-0.02659 0.02089,-0.04843 0.04749,-0.04843 h 2.434072 c 0.02849,0 0.05128,0.02184 0.05128,0.04939 l 0.01045,0.598308 c 0,0.02659 -0.02279,0.04843 -0.05128,0.04843 h -1.53281 c -0.05413,0 -0.09782,0.04369 -0.09782,0.09687 l 0.0038,0.870872 c 0,0.02469 0.02184,0.04463 0.04843,0.04463 H 54.1649 c 0.02944,0 0.05223,0.02279 0.05318,0.05033 l 0.0066,0.569818 c 9.5e-4,0.04274 -0.03609,0.07693 -0.08167,0.07693 h -1.372312 c -0.04558,0 -0.08357,0.03704 -0.08262,0.08167 l 0.0038,0.956344 c 0,0.02659 0.02184,0.04748 0.04843,0.04843 z"
           id="path2460"
           style="fill:#ffffff;stroke-width:0.0949697" /><path
           fill="#ffffff"
           d="m 58.17646,57.418335 1.511917,0.0047 c 0.05223,0 0.09402,0.04084 0.09402,0.09022 v 0.592611 c 0,0.02659 -0.02184,0.04749 -0.04938,0.04749 l -2.426475,0.0057 c -0.03324,0 -0.06078,-0.02754 -0.06078,-0.06078 v -4.115985 c 0,-0.03704 0.02944,-0.06743 0.06648,-0.06838 l 0.75121,-0.0047 c 0.03324,0 0.06078,0.02849 0.06078,0.06268 l 0.0057,3.398965 c 0,0.02564 0.02089,0.04653 0.04653,0.04748 z"
           id="path2462"
           style="fill:#ffffff;stroke-width:0.0949697" /></g><g
         id="MOVIES"
         sodipodi:insensitive="true"
         style="display:inline"><path
           fill="#000000"
           d="m 29.605188,43.851319 q -0.647358,-0.579012 -0.868,-1.421687 -0.138769,-0.530098 -0.09124,-1.077193 0.08847,-1.015095 0.736516,-1.746061 0.23001,-0.259497 0.520384,-0.455856 0.804165,-0.543627 1.786996,-0.501649 0.350738,0.01492 0.684478,0.103729 1.087602,0.28864 1.679451,1.257247 0.542934,0.889509 0.407981,1.983702 -0.11275,0.913099 -0.688989,1.586129 -0.223417,0.260885 -0.512404,0.463834 -0.992197,0.695926 -2.250831,0.484998 -0.796533,-0.133219 -1.404341,-0.677193 z m 2.021637,-0.429666 c 0.920264,-0.03382 1.636311,-0.871639 1.599804,-1.871507 -0.03669,-0.999792 -0.812412,-1.783142 -1.732571,-1.749314 -0.920263,0.03382 -1.636311,0.871638 -1.599805,1.871506 0.03669,0.999793 0.812412,1.783143 1.732572,1.749315 z"
           id="path8616"
           style="fill:#ffffff;stroke-width:0.0346923"
           clip-path="url(#clipPath853)"
           inkscape:path-effect="#path-effect857"
           inkscape:original-d="m 29.605188,43.851319 q -0.647358,-0.579012 -0.868,-1.421687 -0.138769,-0.530098 -0.09124,-1.077193 0.08847,-1.015095 0.736516,-1.746061 0.23001,-0.259497 0.520384,-0.455856 0.804165,-0.543627 1.786996,-0.501649 0.350738,0.01492 0.684478,0.103729 1.087602,0.28864 1.679451,1.257247 0.542934,0.889509 0.407981,1.983702 -0.11275,0.913099 -0.688989,1.586129 -0.223417,0.260885 -0.512404,0.463834 -0.992197,0.695926 -2.250831,0.484998 -0.796533,-0.133219 -1.404341,-0.677193 z m 2.021637,-0.429666 c 0.920264,-0.03382 1.636311,-0.871639 1.599804,-1.871507 -0.03669,-0.999792 -0.812412,-1.783142 -1.732571,-1.749314 -0.920263,0.03382 -1.636311,0.871638 -1.599805,1.871506 0.03669,0.999793 0.812412,1.783143 1.732572,1.749315 z" /><path
           fill="#000000"
           d="m 56.517683,43.11515 q 0.06418,-0.130096 0.04579,-0.288639 -0.02185,-0.190114 -0.180053,-0.296271 -0.269212,-0.1804 -0.582135,-0.266784 -0.321251,-0.08916 -0.643889,-0.174501 -0.417346,-0.110322 -0.807981,-0.294538 -0.633134,-0.298353 -0.784739,-0.92316 -0.07945,-0.326453 -0.04059,-0.689681 0.05551,-0.518649 0.400001,-0.900263 0.225847,-0.249785 0.557505,-0.404165 0.416653,-0.19393 0.909977,-0.213704 1.271122,-0.05065 2.239036,0.71119 c 0.0076,0.0062 0.0097,0.01734 0.0042,0.02498 l -0.634868,0.921425 c -0.0056,0.008 -0.01665,0.01006 -0.02463,0.0045 q -0.313965,-0.210581 -0.658805,-0.366003 -0.401737,-0.180747 -0.829491,-0.18595 -0.194971,-0.0024 -0.372942,0.068 -0.199481,0.07875 -0.287252,0.213704 -0.107199,0.165481 -0.04441,0.388206 0.04128,0.148135 0.179358,0.236254 0.174502,0.111361 0.372248,0.173114 0.428102,0.134259 0.861754,0.251172 0.413185,0.111361 0.796187,0.302169 0.756984,0.377451 0.818737,1.229492 0.07771,1.073725 -0.790636,1.611108 -0.269211,0.166522 -0.68309,0.2536 -0.362881,0.07632 -0.823941,0.0503 -1.247879,-0.07112 -2.207119,-0.889161 c -0.0118,-0.01006 -0.01353,-0.0281 -0.0035,-0.04024 l 0.711192,-0.851348 c 0.0069,-0.008 0.01874,-0.0094 0.02741,-0.0027 q 0.214745,0.171033 0.427754,0.306332 0.702865,0.446142 1.512581,0.360106 0.181441,-0.01943 0.343106,-0.118995 0.136688,-0.0843 0.193236,-0.199481 z"
           id="path8618"
           style="fill:#ffffff;stroke-width:0.0346923" /><path
           fill="#000000"
           d="m 21.621118,41.003088 0.0042,3.459509 c 0,0.01145 -0.0094,0.02047 -0.02081,0.02047 h -1.228104 c -0.01318,0 -0.02394,-0.01076 -0.02394,-0.02394 V 38.76093 c 0,-0.01076 0.0087,-0.01943 0.01943,-0.01943 h 1.359935 c 0.01387,0 0.02706,0.0073 0.03399,0.01943 l 1.536866,2.625161 c 0.0035,0.0062 0.01249,0.0062 0.01631,0 l 1.537213,-2.625161 c 0.0069,-0.01214 0.01978,-0.01943 0.03365,-0.01943 h 1.350915 c 0.01458,0 0.02637,0.0118 0.02637,0.02601 q 0.01978,2.866619 3.47e-4,5.689179 c 0,0.01458 -0.0118,0.02636 -0.02672,0.02636 h -1.22533 c -0.01249,0 -0.0229,-0.0104 -0.0229,-0.0229 v -3.481366 q 0,-0.02325 -0.0118,-0.0031 l -1.37971,2.354214 c -0.0094,0.01596 -0.02636,0.02567 -0.0451,0.02567 h -0.485344 c -0.0222,0 -0.04302,-0.0118 -0.05412,-0.03088 l -1.365486,-2.32993 q -0.02983,-0.05065 -0.02983,0.0083 z"
           id="path8620"
           style="fill:#ffffff;stroke-width:0.0346923" /><path
           fill="#000000"
           d="m 38.826382,43.087396 q 0.01283,0.03851 0.02532,0 l 1.430708,-4.326467 c 0.0038,-0.01145 0.01457,-0.01943 0.02672,-0.01943 h 1.266266 c 0.0104,0 0.01769,0.01006 0.01422,0.01978 L 39.523,44.497986 c -0.0045,0.0118 -0.01561,0.01977 -0.02845,0.01977 h -1.366527 c -0.01458,0 -0.02776,-0.0091 -0.03261,-0.0229 l -2.03331,-5.728726 c -0.0045,-0.0118 0.0045,-0.02428 0.017,-0.02428 l 1.300959,0.0059 c 0.01006,0 0.01908,0.0066 0.02255,0.01665 z"
           id="path8622"
           style="fill:#ffffff;stroke-width:0.0346923" /><rect
           fill="#000000"
           x="43.764172"
           y="38.664082"
           transform="rotate(0.10000025)"
           width="1.2600218"
           height="5.7325444"
           rx="0.0093669025"
           id="rect8624"
           style="fill:#ffffff;stroke-width:0.0346923" /><path
           fill="#000000"
           d="m 48.975593,42.169788 -0.002,1.16427 c 0,0.01665 0.01353,0.03019 0.03052,0.03019 h 2.358725 c 0.01145,0 0.02081,0.0097 0.02047,0.02116 q -0.017,0.519689 0.0027,1.058807 c 6.94e-4,0.01665 -0.01249,0.03019 -0.02914,0.03019 h -3.605911 c -0.0097,0 -0.01769,-0.008 -0.01769,-0.01769 l -0.0087,-5.682241 c 0,-0.01804 0.01458,-0.03296 0.03261,-0.03296 l 3.559769,0.0087 c 0.0087,0 0.01561,0.0069 0.01561,0.01561 v 1.0765 c 0,0.01006 -0.008,0.01804 -0.01805,0.01804 h -2.311543 c -0.0163,0 -0.02948,0.01318 -0.02948,0.02949 V 41.0118 c 0,0.01076 0.0087,0.01943 0.01943,0.01943 h 1.950051 c 0.01006,0 0.01839,0.008 0.01839,0.01805 l 0.0049,1.080316 c 3.47e-4,0.0111 -0.0091,0.02047 -0.02081,0.02047 l -1.952825,0.002 c -0.0094,0 -0.017,0.008 -0.017,0.01769 z"
           id="path8626"
           style="fill:#ffffff;stroke-width:0.0346923" /></g></g></g></svg>
