<?xml version="1.0" encoding="UTF-8" standalone="no"?>
<!-- Created with Inkscape (http://www.inkscape.org/) -->

<svg
   width="300"
   height="184"
   viewBox="0 0 79.374998 48.683333"
   version="1.1"
   id="svg1"
   inkscape:version="1.3 (1:1.3+202307231459+0e150ed6c4)"
   sodipodi:docname="True.svg"
   xml:space="preserve"
   inkscape:export-filename="True.png"
   inkscape:export-xdpi="96"
   inkscape:export-ydpi="96"
   xmlns:inkscape="http://www.inkscape.org/namespaces/inkscape"
   xmlns:sodipodi="http://sodipodi.sourceforge.net/DTD/sodipodi-0.dtd"
   xmlns="http://www.w3.org/2000/svg"
   xmlns:svg="http://www.w3.org/2000/svg"><sodipodi:namedview
     id="namedview1"
     pagecolor="#ffffff"
     bordercolor="#cccccc"
     borderopacity="1"
     inkscape:showpageshadow="0"
     inkscape:pageopacity="1"
     inkscape:pagecheckerboard="true"
     inkscape:deskcolor="#d1d1d1"
     inkscape:document-units="px"
     inkscape:zoom="2.0000001"
     inkscape:cx="151.75"
     inkscape:cy="146"
     inkscape:window-width="1600"
     inkscape:window-height="831"
     inkscape:window-x="0"
     inkscape:window-y="0"
     inkscape:window-maximized="1"
     inkscape:current-layer="g1" /><defs
     id="defs1" /><g
     inkscape:groupmode="layer"
     id="layer2"
     inkscape:label="Capa 2"><rect
       style="opacity:0;fill:#0130d7;stroke:#000000;stroke-width:0"
       id="rect1"
       width="79.375"
       height="48.683331"
       x="5e-07"
       y="5e-07"
       rx="0.35511732"
       sodipodi:insensitive="true" /><g
       id="g1"
       transform="matrix(0.08227094,0,0,0.08227094,6.6145815,11.589671)"><g
         id="g2"
         style="fill:#00aad4"><path
           fill="#1c1c67"
           d="m 690.56,0 h 8.49 q 6.24,0.77 12.41,1.75 c 52.24,8.3 90.23,50.86 92.54,104.04 v 7.82 C 800.76,185.3 732.05,236.42 662.22,214.55 599.46,194.9 567.43,124.6 595.19,63.92 610.7,30.02 643.69,5.59 681.03,1.14 Q 685.79,0.57 690.56,0 Z m -44.22,89.95 a 0.48,0.48 0 0 1 0.47,0.56 l -10.86,62.18 a 0.48,0.48 0 0 0 0.47,0.56 h 20.47 a 0.48,0.48 0 0 0 0.47,-0.4 L 668.28,90.4 a 0.48,0.48 0 0 1 0.47,-0.4 h 21.37 a 0.48,0.48 0 0 0 0.47,-0.4 l 3.14,-17.79 a 0.48,0.48 0 0 0 -0.47,-0.56 h -66.11 a 0.48,0.48 0 0 0 -0.47,0.4 l -3.15,17.8 a 0.48,0.48 0 0 0 0.47,0.57 z m 78.11,35.87 a 0.3,0.3 0 0 1 -0.56,-0.11 l -4.28,-54.18 a 0.3,0.3 0 0 0 -0.3,-0.28 h -20.23 a 0.3,0.3 0 0 0 -0.3,0.33 l 8.27,81.4 a 0.3,0.3 0 0 0 0.3,0.27 h 23.47 a 0.3,0.3 0 0 0 0.26,-0.16 l 43.84,-81.4 a 0.3,0.3 0 0 0 -0.26,-0.44 h -21.97 a 0.3,0.3 0 0 0 -0.26,0.16 z"
           id="path1"
           style="fill:#00aad4" /><path
           fill="#1c1c67"
           d="M 0,133.18 V 71.3 l 41.22,-0.02 q 1.04,0 1.04,-1.04 L 42.23,6.26 a 0.51,0.51 0 0 1 0.51,-0.51 h 79.76 q 0.5,0 0.5,0.5 v 64.5 q 0,0.5 0.5,0.5 h 40.9 a 0.4,0.4 0 0 1 0.4,0.4 l -0.05,61.1 q 0,0.5 -0.5,0.5 H 123.5 a 0.5,0.5 0 0 0 -0.5,0.5 v 172.74 a 0.5,0.49 90 0 1 -0.49,0.5 l -79.7,0.07 A 0.57,0.56 0 0 1 42.24,306.5 L 42.25,134 a 0.76,0.75 90 0 0 -0.75,-0.76 z"
           id="path2"
           style="fill:#00aad4" /><path
           fill="#1c1c67"
           d="m 251.24,109.96 a 0.45,0.44 58.9 0 0 0.84,0.21 C 268.3,79.2 297.22,69.48 330.7,71.4 q 0.55,0.03 0.55,0.59 v 80.29 a 0.96,0.96 0 0 1 -0.96,0.96 c -22.28,0.04 -56.77,-1.48 -68.24,23.32 -3.79,8.2 -4.51,16.38 -4.52,26.51 q -0.06,51.82 -0.02,103.42 a 0.77,0.77 0 0 1 -0.77,0.77 l -78.75,-0.03 q -1.49,0 -1.49,-1.49 V 71.75 a 0.5,0.5 0 0 1 0.5,-0.5 h 73.79 a 0.48,0.48 0 0 1 0.48,0.48 z"
           id="path3"
           style="fill:#00aad4" /><path
           fill="#1c1c67"
           d="m 435.93,310 h -11.49 c -44.06,-1.97 -75.8,-29.22 -80.94,-73.22 q -0.72,-6.2 -0.73,-17.22 -0.05,-73.92 -0.01,-147.81 a 0.5,0.5 0 0 1 0.5,-0.5 h 79.16 a 0.35,0.35 0 0 1 0.35,0.35 q -0.04,62.15 -0.01,123.15 c 0.01,19.09 8.99,36.82 29.67,39.73 19.96,2.81 34.79,-8 39.54,-27.36 q 1.22,-4.97 1.24,-15.48 0.09,-59.89 0.02,-119.65 0,-0.74 0.75,-0.74 h 79.55 a 0.47,0.47 0 0 1 0.47,0.47 v 234.53 q 0,1 -1,1 l -73,-0.01 a 0.75,0.74 0 0 1 -0.75,-0.74 v -33.51 a 0.22,0.22 0 0 0 -0.41,-0.1 C 486.49,297.72 462.9,309.13 435.93,310 Z"
           id="path4"
           style="fill:#00aad4" /></g></g></g><style
     type="text/css"
     id="style1">&#10;	.st0{fill:url(#SVGID_1_);}&#10;	.st1{fill:url(#SVGID_2_);}&#10;	.st2{fill:url(#SVGID_3_);}&#10;	.st3{fill:url(#SVGID_4_);}&#10;	.st4{fill:#E4051E;}&#10;	.st5{fill:#8C2B1D;}&#10;</style></svg>
